<svg width="8" height="8" viewBox="0 0 8 8" fill="none" xmlns="http://www.w3.org/2000/svg">
<path d="M2.02539 7.49968C2.02551 7.36712 2.07826 7.24003 2.17206 7.14635L4.72939 4.58901C4.8068 4.51163 4.8682 4.41975 4.91009 4.31863C4.95198 4.21751 4.97355 4.10913 4.97355 3.99968C4.97355 3.89023 4.95198 3.78185 4.91009 3.68073C4.8682 3.57961 4.8068 3.48773 4.72939 3.41035L2.17539 0.85468C2.08431 0.760379 2.03391 0.634078 2.03505 0.50298C2.03619 0.371881 2.08878 0.246475 2.18148 0.153771C2.27419 0.0610668 2.39959 0.00848233 2.53069 0.00734312C2.66179 0.00620391 2.78809 0.0566011 2.88239 0.14768L5.43639 2.70135C5.7798 3.04543 5.97267 3.51171 5.97267 3.99785C5.97267 4.48398 5.7798 4.95026 5.43639 5.29435L2.87906 7.85168C2.80923 7.92155 2.72027 7.96918 2.62341 7.98854C2.52654 8.00791 2.42611 7.99814 2.33479 7.96049C2.24346 7.92283 2.16534 7.85897 2.11028 7.77696C2.05521 7.69495 2.02567 7.59846 2.02539 7.49968Z" fill="#828282"/>
</svg>
