<svg width="12" height="12" viewBox="0 0 12 12" fill="none" xmlns="http://www.w3.org/2000/svg">
<path d="M8.96096 0.752293C8.96079 0.951139 8.88165 1.14178 8.74096 1.28229L4.90496 5.11829C4.78885 5.23437 4.69675 5.37218 4.63391 5.52386C4.57107 5.67554 4.53873 5.83811 4.53873 6.00229C4.53873 6.16647 4.57107 6.32905 4.63391 6.48072C4.69675 6.6324 4.78885 6.77022 4.90496 6.88629L8.73596 10.7173C8.87258 10.8587 8.94818 11.0482 8.94647 11.2448C8.94476 11.4415 8.86588 11.6296 8.72683 11.7687C8.58777 11.9077 8.39966 11.9866 8.20301 11.9883C8.00636 11.99 7.81691 11.9144 7.67546 11.7778L3.84446 7.94979C3.32934 7.43366 3.04004 6.73425 3.04004 6.00504C3.04004 5.27584 3.32934 4.57642 3.84446 4.06029L7.68046 0.221793C7.78535 0.116835 7.91902 0.0453502 8.06455 0.0163831C8.21008 -0.012584 8.36093 0.00226912 8.49802 0.0590629C8.63511 0.115857 8.75227 0.212038 8.83467 0.335438C8.91708 0.458837 8.96103 0.603908 8.96096 0.752293Z" fill="white"/>
</svg>
