<svg width="12" height="12" viewBox="0 0 12 12" fill="none" xmlns="http://www.w3.org/2000/svg">
<path d="M3.03906 11.2503C3.03924 11.0514 3.11837 10.8608 3.25906 10.7203L7.09506 6.88425C7.21117 6.76818 7.30328 6.63036 7.36611 6.47868C7.42895 6.327 7.4613 6.16443 7.4613 6.00025C7.4613 5.83607 7.42895 5.6735 7.36611 5.52182C7.30328 5.37014 7.21117 5.23233 7.09506 5.11625L3.26406 1.28275C3.12744 1.1413 3.05185 0.951849 3.05356 0.755202C3.05527 0.558554 3.13414 0.370445 3.2732 0.231389C3.41225 0.0923326 3.60036 0.0134559 3.79701 0.0117471C3.99366 0.0100383 4.18311 0.0856341 4.32456 0.222253L8.15556 4.05275C8.67068 4.56888 8.95998 5.2683 8.95998 5.9975C8.95998 6.72671 8.67068 7.42612 8.15556 7.94225L4.31956 11.7783C4.21482 11.8831 4.08138 11.9545 3.93609 11.9835C3.79079 12.0126 3.64014 11.9979 3.50316 11.9415C3.36617 11.885 3.24899 11.7892 3.16639 11.6662C3.0838 11.5432 3.03949 11.3984 3.03906 11.2503Z" fill="white"/>
</svg>
