<svg width="20" height="20" viewBox="0 0 20 20" fill="none" xmlns="http://www.w3.org/2000/svg">
<rect x="0.625" y="0.625" width="18.75" height="18.75" rx="9.375" stroke="#828282" stroke-width="1.25"/>
<path d="M12.5127 6.67834C12.7365 6.45455 13.0995 6.45456 13.3232 6.67834C13.5469 6.90214 13.547 7.26516 13.3232 7.48889L10.8115 9.99963L13.3232 12.5114C13.5469 12.7351 13.547 13.0982 13.3232 13.3219C13.0995 13.5457 12.7365 13.5456 12.5127 13.3219L10.001 10.8102L7.49023 13.3219C7.2665 13.5456 6.90348 13.5455 6.67969 13.3219C6.45589 13.0981 6.4559 12.7351 6.67969 12.5114L9.19043 9.99963L6.67969 7.48889C6.45589 7.26511 6.45593 6.90212 6.67969 6.67834C6.90346 6.45455 7.26645 6.45456 7.49023 6.67834L10.001 9.18909L12.5127 6.67834Z" fill="#828282" stroke="#828282" stroke-width="0.3125"/>
</svg>
