<svg width="12" height="12" viewBox="0 0 12 12" fill="none" xmlns="http://www.w3.org/2000/svg">
<path d="M6.89496 5.85936L11.5042 1.25067C11.7903 0.964554 11.7903 0.500676 11.5042 0.214585C11.218 -0.0715284 10.7542 -0.0715284 10.4681 0.214585L5.85936 4.82376L1.25067 0.214585C0.964554 -0.0715284 0.500676 -0.0715284 0.214585 0.214585C-0.0715055 0.500699 -0.0715284 0.964577 0.214585 1.25067L4.82376 5.85936L0.214585 10.4681C-0.0715284 10.7542 -0.0715284 11.2181 0.214585 11.5042C0.500699 11.7902 0.964577 11.7903 1.25067 11.5042L5.85936 6.89496L10.468 11.5042C10.7542 11.7903 11.218 11.7903 11.5041 11.5042C11.7902 11.218 11.7902 10.7542 11.5041 10.4681L6.89496 5.85936Z" fill="white"/>
</svg>
