<svg width="17" height="16" viewBox="0 0 17 16" fill="none" xmlns="http://www.w3.org/2000/svg">
<g clip-path="url(#clip0_1217_3603)">
<path d="M15.0588 1.88281H1.88235C0.842758 1.88281 0 2.72557 0 3.76517V12.2358C0 13.2753 0.842758 14.1181 1.88235 14.1181H15.0588C16.0984 14.1181 16.9412 13.2753 16.9412 12.2358V3.76517C16.9412 2.72557 16.0984 1.88281 15.0588 1.88281Z" fill="white"/>
<path d="M0 5.64746H16.9412" stroke="#191919" stroke-width="1.41176"/>
<path d="M4.70634 8.4707H2.82399C2.30419 8.4707 1.88281 8.89208 1.88281 9.41188V11.2942C1.88281 11.814 2.30419 12.2354 2.82399 12.2354H4.70634C5.22614 12.2354 5.64752 11.814 5.64752 11.2942V9.41188C5.64752 8.89208 5.22614 8.4707 4.70634 8.4707Z" fill="#191919"/>
</g>
<defs>
<clipPath id="clip0_1217_3603">
<rect width="16.9412" height="16" fill="white"/>
</clipPath>
</defs>
</svg>
