<svg width="24" height="24" viewBox="0 0 24 24" fill="none" xmlns="http://www.w3.org/2000/svg">
<g clip-path="url(#clip0_1075_8759)">
<rect width="24" height="24" rx="4" fill="url(#paint0_linear_1075_8759)"/>
<path d="M5.44531 8.39758H11.998L15.5944 10.5077L11.998 16.2559H11.2319L8.44377 19.6292V16.2559H5.44531V8.39758Z" fill="white"/>
<path d="M11.9961 8.39758H18.5488V16.256H11.9961V8.39758Z" fill="#E9E9EC"/>
<path d="M15.059 9.81338L11.9933 14.5958C9.35209 14.5958 7.21094 12.4546 7.21094 9.81338C7.21094 7.17216 9.35209 5.03101 11.9933 5.03101L15.059 9.81338Z" fill="#6FB9FF"/>
<path d="M16.7785 9.81155C16.7785 12.4528 14.6373 14.5939 11.9961 14.5939V5.02917C14.6373 5.02917 16.7785 7.17033 16.7785 9.81155Z" fill="#5D8FF9"/>
<path d="M11.2852 12.4801C11.2852 12.8736 11.6041 13.1927 11.9977 13.1927L12.354 12.4801L11.9977 11.7676C11.6042 11.7676 11.2852 12.0866 11.2852 12.4801Z" fill="white"/>
<path d="M10.0193 8.14923C10.0065 8.24064 10 8.33415 10 8.42734H11.1642C11.1642 8.38787 11.167 8.3485 11.1722 8.31015C11.23 7.89671 11.585 7.59531 11.9986 7.59348L12.3549 6.96606L11.9986 6.4292C11.0113 6.43004 10.1578 7.156 10.0193 8.14923Z" fill="white"/>
<path d="M11.418 10.1871V11.3251H12.0001L12.3011 10.3133L12.0001 9.30164C11.6499 9.4537 11.418 9.79504 11.418 10.1871Z" fill="white"/>
<path d="M12 13.1923C12.3935 13.1923 12.7125 12.8733 12.7125 12.4798C12.7125 12.0862 12.3936 11.7672 12 11.7672V13.1923Z" fill="#E9E9EC"/>
<path d="M12.1738 6.43609C12.1155 6.43112 12.0575 6.42915 12 6.4292V7.59348C12.0248 7.59339 12.0498 7.594 12.0749 7.59611C12.4611 7.62906 12.7852 7.94364 12.8288 8.32778C12.8773 8.75636 12.5992 9.14936 12.1819 9.24203C12.1183 9.25614 12.0577 9.27662 12 9.3017V11.3252H12.5821V10.3398C13.4993 10.0622 14.0955 9.16731 13.9856 8.19672C13.8791 7.25697 13.1171 6.51653 12.1738 6.43609Z" fill="#E9E9EC"/>
</g>
<defs>
<linearGradient id="paint0_linear_1075_8759" x1="12" y1="24" x2="12" y2="0" gradientUnits="userSpaceOnUse">
<stop stop-color="#9E0862"/>
<stop offset="1" stop-color="#FF6BF0"/>
</linearGradient>
<clipPath id="clip0_1075_8759">
<rect width="24" height="24" rx="4" fill="white"/>
</clipPath>
</defs>
</svg>
