<svg width="24" height="24" viewBox="0 0 24 24" fill="none" xmlns="http://www.w3.org/2000/svg">
<g clip-path="url(#clip0_1075_8031)">
<rect width="24" height="24" rx="4" fill="url(#paint0_linear_1075_8031)"/>
<path d="M12 24C18.6274 24 24 18.6274 24 12C24 5.37258 18.6274 0 12 0C5.37258 0 0 5.37258 0 12C0 18.6274 5.37258 24 12 24Z" fill="url(#paint1_linear_1075_8031)"/>
<path d="M19.8303 13.6158L18.9281 13.0507C18.9802 12.7005 19.0338 12.3687 19.0338 12.0008C19.0338 11.6575 18.9858 11.3286 18.9267 10.9523L19.8303 10.3865C20.1215 10.2046 20.2395 9.83862 20.1077 9.52137L19.4884 8.02381C19.3579 7.70656 19.0146 7.52871 18.6809 7.60699L17.644 7.84662C17.2266 7.27878 16.7253 6.7782 16.1567 6.35867L16.3971 5.32456C16.474 4.98949 16.2982 4.64684 15.981 4.51568L14.4827 3.89567C14.1655 3.76245 13.7975 3.87987 13.6176 4.17307L13.0531 5.07603C12.9088 5.05849 12.5552 4.98917 12.0026 4.99062C11.6751 4.99137 11.3334 5.01748 10.952 5.07603L10.3876 4.17307C10.2063 3.87987 9.83826 3.76315 9.52242 3.89567L8.02551 4.51573C7.70826 4.64689 7.53248 4.98884 7.6094 5.3239L7.84837 6.35867C7.27847 6.7782 6.77859 7.27948 6.36108 7.84596V7.84667L5.32425 7.60634C4.9919 7.5267 4.64723 7.7059 4.51673 8.02315L3.89742 9.52132C3.76556 9.83857 3.88369 10.2039 4.17483 10.3858L5.07708 10.9509C5.02495 11.301 4.97133 11.6329 4.97133 12.0008C4.97133 12.3441 5.01937 12.6731 5.07844 13.0493L4.17483 13.6151C3.88369 13.7971 3.76561 14.163 3.89742 14.4803L4.51678 15.9778C4.64723 16.2957 4.99467 16.4756 5.32429 16.3946L6.36112 16.155C6.77859 16.7229 7.27987 17.2234 7.84842 17.643L7.60809 18.6771C7.53117 19.0121 7.70695 19.3548 8.0242 19.486L9.52247 20.106C9.84272 20.2386 10.2095 20.1175 10.3876 19.8286L10.9521 18.9257C11.0948 18.9427 11.4495 19.0112 12.0026 19.0099C12.3297 19.0092 12.6712 18.9841 13.0532 18.9257L13.6176 19.8286C13.8002 20.1211 14.1669 20.2365 14.4828 20.106L15.9797 19.486C16.2969 19.3548 16.4727 19.0129 16.3958 18.6778L16.1568 17.643C16.7267 17.2235 17.2266 16.7222 17.6441 16.1557V16.155L18.681 16.3946C19.0119 16.4736 19.358 16.2958 19.4885 15.9778L20.1078 14.4803C20.2396 14.1631 20.1215 13.7978 19.8303 13.6158ZM12.0026 14.8133C10.4521 14.8133 9.19008 13.552 9.19008 12.0008C9.19008 10.4497 10.4521 9.18832 12.0026 9.18832C13.553 9.18832 14.8151 10.4497 14.8151 12.0008C14.8151 13.552 13.553 14.8133 12.0026 14.8133Z" fill="url(#paint2_linear_1075_8031)"/>
</g>
<defs>
<linearGradient id="paint0_linear_1075_8031" x1="12" y1="24" x2="12" y2="0" gradientUnits="userSpaceOnUse">
<stop stop-color="#5558FF"/>
<stop offset="1" stop-color="#00C0FF"/>
</linearGradient>
<linearGradient id="paint1_linear_1075_8031" x1="12" y1="24" x2="12" y2="0" gradientUnits="userSpaceOnUse">
<stop stop-color="#5558FF"/>
<stop offset="1" stop-color="#00C0FF"/>
</linearGradient>
<linearGradient id="paint2_linear_1075_8031" x1="12.0026" y1="20.1596" x2="12.0026" y2="3.84106" gradientUnits="userSpaceOnUse">
<stop stop-color="#ADDCFF"/>
<stop offset="0.5028" stop-color="#EAF6FF"/>
<stop offset="1" stop-color="#EAF6FF"/>
</linearGradient>
<clipPath id="clip0_1075_8031">
<rect width="24" height="24" rx="4" fill="white"/>
</clipPath>
</defs>
</svg>
