<svg width="24" height="24" viewBox="0 0 24 24" fill="none" xmlns="http://www.w3.org/2000/svg">
<g clip-path="url(#clip0_1075_8821)">
<rect width="24" height="24" rx="4" fill="#FFD05B"/>
<path d="M23.997 12C23.997 15.1661 22.7709 18.0457 20.7675 20.1901C18.5774 22.5345 15.4583 23.7908 11.997 23.7908C5.36955 23.7908 0.226562 18.6274 0.226562 12C0.226562 8.53884 1.46228 5.41992 3.80641 3.22978C5.95084 1.2263 8.8307 0 11.997 0C18.6244 0 23.997 5.37258 23.997 12Z" fill="#FFD05B"/>
<path d="M11.9977 21.6781C17.3425 21.6781 21.6752 17.3454 21.6752 12.0007C21.6752 6.65598 17.3425 2.32324 11.9977 2.32324C6.65305 2.32324 2.32031 6.65598 2.32031 12.0007C2.32031 17.3454 6.65305 21.6781 11.9977 21.6781Z" fill="#FFEAA5"/>
<path d="M20.1266 12.0004C20.1266 14.0713 19.3522 15.9613 18.0772 17.3967C16.5881 19.0731 14.4162 19.9174 11.9976 19.9174C7.50806 19.9174 4.13672 16.4899 4.13672 12.0004C4.13672 9.58329 4.92352 7.4126 6.59808 5.92357C8.03386 4.64684 9.92517 3.87134 11.9976 3.87134C16.4872 3.87134 20.1266 7.51081 20.1266 12.0004Z" fill="#FFE077"/>
<path d="M13.9353 12.3877L12.361 8.29476C12.2338 7.96392 11.7657 7.96392 11.6385 8.29476L10.0643 12.3877L8.02703 10.8597L7.77344 11.2098L9.37694 15.9622L15.3384 15.4844L16.6742 11.2098C16.7863 10.8511 16.3731 10.5592 16.0725 10.7846L13.9353 12.3877Z" fill="#FFC244"/>
<path d="M12.5806 23.4198C5.95322 23.4198 0.580641 18.0472 0.580641 11.4198C0.580641 8.25377 1.80623 5.37457 3.80948 3.23022C1.46503 5.42037 0 8.53896 0 12.0004C0 18.6278 5.37258 24.0004 12 24.0004C15.4614 24.0004 18.5804 22.535 20.7705 20.1905C18.6262 22.1937 15.7466 23.4198 12.5806 23.4198Z" fill="#FFC244"/>
<path d="M12.6792 19.4544C8.1897 19.4544 4.55023 15.8149 4.55023 11.3254C4.55023 9.25256 5.32742 7.3597 6.60453 5.92383C4.93039 7.41277 3.875 9.58392 3.875 12.0006C3.875 16.4902 7.51452 20.1296 12.004 20.1296C14.4207 20.1296 16.5946 19.0711 18.0836 17.397C16.6477 18.6741 14.7521 19.4544 12.6792 19.4544Z" fill="#FFD05B"/>
<path d="M9.13098 14.3975L8.0253 10.8593L7.92522 10.7843C7.62461 10.5588 7.21141 10.8507 7.32348 11.2094L8.73147 15.7149C8.83248 16.0381 9.13183 16.2582 9.47045 16.2582H14.5256C14.8643 16.2582 15.1636 16.0381 15.2646 15.7149L15.3368 15.484H10.609C9.93166 15.484 9.33297 15.0439 9.13098 14.3975Z" fill="#FFAA5A"/>
</g>
<defs>
<clipPath id="clip0_1075_8821">
<rect width="24" height="24" rx="4" fill="white"/>
</clipPath>
</defs>
</svg>
