<svg width="115" height="62" viewBox="0 0 115 62" fill="none" xmlns="http://www.w3.org/2000/svg">
<g clip-path="url(#clip0_487_4236)">
<path d="M18.3794 24.18C14.9395 23.2077 9.43879 21.9143 3.41815 23.5178C2.29978 23.8156 1.5402 24.3083 1.00787 25.2433C0.74248 25.7105 0.498106 26.2158 0.631189 26.7311C0.746372 27.1687 1.37287 27.3225 1.87563 27.4026C2.35971 27.4788 3.45627 27.5364 3.75201 27.1842C3.90612 26.9999 3.91 26.4823 3.10685 26.3137C2.81032 26.2515 2.00326 26.2235 1.94178 26.0875C1.94178 26.0875 1.9698 25.9935 2.41262 25.8566C2.60798 25.7961 4.04309 25.2061 7.96397 25.3328C12.6265 25.4827 16.6992 26.5733 21.0061 28.2669C25.2203 29.9241 29.956 32.9212 32.7337 36.4897C33.7844 37.8398 35.0887 40.0582 35.2608 41.926C35.6771 46.4621 31.241 50.2901 22.2341 49.9831C20.6948 49.9302 18.8239 49.5656 18.8239 49.5656L18.637 40.8082C18.637 40.8082 22.4481 40.7794 26.6618 42.1646C27.0205 42.2827 27.3808 42.5166 27.4136 42.8641C27.4368 43.1315 27.2259 43.3608 26.9886 43.5676C26.552 43.9483 25.9512 44.114 25.8189 44.2757C25.7232 44.3922 25.7224 44.5702 25.847 44.6681C26.1637 44.9129 26.941 45.0794 27.4656 45.0335C28.528 44.9394 29.2347 44.3262 29.7685 43.5224C30.3374 42.6659 30.6612 40.4879 27.6345 39.099C23.7222 37.3026 18.609 37.6408 18.609 37.6408C18.609 37.6408 18.5826 36.4532 18.5297 35.6627C18.4418 34.3662 18.0821 31.8176 16.8992 31.083C16.6828 30.9501 16.4174 30.9346 16.2681 31.1358C16.0385 31.4351 15.8127 32.5754 15.7629 32.8715C15.3178 35.5228 15.3411 37.9005 15.3178 37.9339C15.3045 37.9495 15.2905 37.9625 15.2719 37.9766C15.2252 38.0061 12.3977 38.3435 9.66837 39.5241C8.5788 39.9952 7.02072 40.8456 6.54832 41.94C5.93893 43.3522 7.0106 44.8981 8.82007 46.6098C10.3525 48.0594 12.6118 49.5852 14.2858 50.3749C14.7123 50.5761 15.2135 50.8242 15.2135 50.8242C15.2135 50.8242 15.3217 51.836 15.4088 52.4207C15.7232 54.5278 17.332 54.2208 17.7755 54.1306C18.4963 53.9837 18.6347 53.5049 18.7343 52.95C18.7888 52.6468 18.7663 52.2085 18.7663 52.2085C18.7663 52.2085 19.8558 52.4595 20.5874 52.5923C22.7151 52.9849 25.0266 53.0525 27.0299 52.7797C35.042 51.6861 37.0608 47.9164 37.699 46.9097C38.8081 45.1594 41.1607 40.2828 34.0739 33.0441C32.4551 31.39 27.7754 26.8352 18.3779 24.1793L18.3794 24.18ZM7.79897 43.9087C7.50792 43.6087 7.28377 43.2838 7.35226 42.8913C7.41763 42.5127 8.16009 42.1785 8.53521 42.0682C12.1495 41.004 15.2127 40.9497 15.2127 40.9497C15.2127 40.9497 15.1839 42.2447 15.1777 43.5543C15.166 46.0353 15.2314 48.5536 15.2314 48.5536C15.2314 48.5536 11.1549 47.3676 7.79897 43.908V43.9087Z" fill="white"/>
<path d="M44.5077 34.7939C46.202 34.1308 47.5102 33.1794 48.8348 31.8254C49.6085 31.0396 50.287 29.747 50.0381 28.5695C49.9135 27.9843 49.6458 27.5807 49.1563 27.1595C48.9127 26.9504 48.3546 26.6551 47.901 26.5649C47.7694 26.5385 47.6293 26.5284 47.5725 26.4919C47.5079 26.4506 47.4565 26.3659 47.3935 26.2874C47.097 25.9113 46.5079 25.5513 46.0845 25.4059C44.7847 24.9567 43.0507 25.2955 41.867 25.7938C40.6156 26.3231 39.4615 27.099 38.5843 28.0379C36.283 30.5018 37.2941 32.4535 37.4987 32.8173C37.673 33.1251 37.996 33.457 38.0668 33.7788C38.1096 33.9699 38.0715 34.2202 38.0793 34.4464C38.0956 34.9648 38.3213 35.4996 38.7112 35.844C38.9906 36.0896 39.3922 36.1627 39.7962 35.551C39.9315 35.3457 40.1572 34.9283 40.1572 34.9283C40.1572 34.9283 40.6265 35.1996 41.7605 35.2789C42.6056 35.3379 43.7638 35.0838 44.5077 34.7939ZM39.0786 31.8162C39.0786 31.8162 39 31.6521 38.9494 31.5286C38.6006 30.6627 39.3705 29.6864 40.0732 29.0879C41.4413 27.9236 42.6056 27.9515 42.6056 27.9515C42.6056 27.9515 42.3271 28.1746 42.0958 28.3767C40.0989 30.1216 39.0786 31.8162 39.0786 31.8162ZM42.0734 31.7843C42.91 30.707 44.4586 29.3701 45.5389 28.7265C46.3849 28.222 47.1156 28.0837 47.6613 28.3232C47.9849 28.4653 48.2442 28.7584 48.2886 29.1509C48.4333 30.3657 47.0293 31.3809 46.0907 31.9281C43.9575 33.171 41.4344 32.8895 41.3697 32.7768C41.3605 32.7472 41.8803 32.0384 42.0741 31.7843H42.0734Z" fill="white"/>
<path d="M92.8653 38.3863C90.1499 36.5045 85.7691 42.4716 83.8421 45.4306C83.5549 43.9243 84.5753 42.013 84.5753 42.013C84.5753 42.013 86.2112 39.1837 86.443 38.6094C86.6664 38.0311 86.7964 36.8426 86.5154 36.7245C86.2601 36.607 85.8196 36.988 85.8196 36.988C82.1455 40.2813 81.6319 43.9353 81.6319 43.9353C81.2847 45.9025 81.6902 47.2845 82.2864 48.2514C80.2442 52.5971 79.2449 56.3878 79.511 58.6286C79.7585 60.3347 80.9827 61.5683 81.7252 61.8287C82.4755 62.1412 82.6085 61.2404 82.6085 61.2404C83.2163 56.6047 84.2779 53.5057 85.5426 50.4425C89.3724 51.3215 92.2544 47.5977 93.2745 45.8186C93.8747 44.7505 94.1976 43.3243 94.1976 41.9827C94.1976 40.4545 93.7766 39.0368 92.8653 38.3855V38.3863ZM90.3693 45.7758C89.9296 46.1924 88.4743 47.0101 86.9653 47.1795C88.4035 44.3953 90.1895 42.3465 91.1795 41.2536C92.3313 39.9578 92.4824 41.1348 92.4824 41.1348C92.7509 43.4215 91.0845 45.1424 90.3686 45.7766L90.3693 45.7758Z" fill="white"/>
<path d="M80.2812 47.9802C80.4641 47.2838 79.8297 46.5205 79.2562 46.3782C78.7207 46.2678 74.6107 47.0373 74.1196 47.1694C73.5912 47.3109 73.827 46.815 73.827 46.815L74.462 44.669C74.462 44.669 78.3845 44.5183 78.9557 44.4227C79.4835 44.3278 79.5153 43.9555 79.5153 43.9555C79.5153 43.9555 79.5831 43.3415 79.5635 42.7678C79.506 42.1538 79.0142 42.2105 79.0142 42.2105C77.4973 42.0521 75.4123 42.2308 75.4123 42.2308L75.9384 40.5837C75.9384 40.5837 80.1107 40.3809 81.6975 40.0155C82.5125 39.8235 82.033 39.0244 82.033 39.0244C81.0438 37.0487 79.9036 37.1599 79.9036 37.1599C76.6217 37.0503 71.8526 37.9193 71.3326 38.1765C70.8462 38.3972 70.8992 38.7633 71.5335 39.5616C72.2144 40.4026 73.3601 40.3241 73.3601 40.3241L72.3545 42.4017C71.5335 42.4593 71.2518 42.715 71.2518 42.715C70.7785 43.2194 71.4315 44.7103 71.4315 44.7103C71.4315 44.7103 70.0065 47.9025 71.0401 49.5884C72.1499 51.3583 73.4628 51.2734 73.4628 51.2734C75.961 51.4554 80.0632 48.8429 80.2819 47.9802H80.2812Z" fill="white"/>
<path d="M65.9406 35.2981C65.9406 35.2981 65.3593 35.0268 65.2122 35.6059C65.0644 36.1788 65.2838 36.7897 65.2838 36.7897C66.7306 41.6919 67.059 44.588 67.059 44.588C67.059 44.588 67.126 45.4399 66.9602 45.4873C66.8443 45.5751 66.7151 45.4539 66.7151 45.4539C66.5493 45.4601 64.9631 42.8026 64.9631 42.8026L64.655 42.2819C62.9093 39.4689 61.8517 38.5105 61.8517 38.5105C61.6042 38.2789 60.9692 37.6424 60.1776 38.5199C59.3853 39.4029 58.7659 42.2391 58.516 44.9052C58.3036 47.5657 58.4654 49.0798 58.8538 49.7188C59.2819 50.3655 60.1068 50.5863 60.787 50.032C61.5061 49.4802 61.3707 45.97 61.4844 44.1706C61.5932 42.3627 61.7715 42.6861 61.7715 42.6861C61.9302 42.6433 62.7537 44.2973 62.7537 44.2973C62.7537 44.2973 64.9235 48.734 66.2861 49.3907C67.6669 50.046 68.7775 48.9913 69.1976 48.0033C69.6249 47.0084 70.351 43.7175 69.27 40.0705C68.1821 36.4244 65.9399 35.2981 65.9399 35.2981H65.9406Z" fill="white"/>
<path d="M43.3974 44.687C43.3414 43.4737 43.1965 40.3755 42.8573 38.9756C42.7101 38.3733 42.4665 37.8238 41.8727 37.5976C41.8043 37.5719 41.7249 37.5486 41.6735 37.54C41.3022 37.4678 41.089 37.9793 40.9886 38.2333C40.6953 38.9857 40.4836 40.7828 40.426 41.3433C40.2516 43.0408 40.1099 47.0639 40.4049 49.1135C40.5287 49.9725 40.812 50.5305 41.6813 50.71C42.0339 50.7832 42.6759 50.7691 42.9585 50.5889C43.2051 50.4357 43.3771 50.1373 43.4347 49.8808C43.5942 49.1665 43.532 48.1537 43.5001 47.3919C43.4619 46.4926 43.4395 45.5965 43.3982 44.687H43.3974Z" fill="white"/>
<path d="M57.429 37.908C55.5534 36.9123 52.466 36.91 50.5562 37.1471C48.5833 37.3912 45.9427 38.006 44.8149 39.6251C44.3846 40.243 44.1324 41.1928 44.3301 41.9662C44.4422 42.396 44.752 42.7224 45.2017 42.9565C46.0011 43.3723 48.6673 43.4609 49.8558 43.5883C50.9758 43.708 53.0382 43.9071 54.1752 44.3811C54.1752 44.3811 55.2514 44.7559 55.2445 45.3699C55.2422 45.6731 55.0149 45.9148 54.7844 46.0788C53.0973 47.2726 50.7781 47.6115 48.7157 47.5781C48.0167 47.5687 47.4408 47.4583 46.7311 47.1545C46.4291 47.0223 46.0368 46.7813 46.0898 46.3695C46.1746 45.7096 46.9295 45.5471 47.5295 45.6038C47.8642 45.6341 48.3015 45.7771 48.6301 45.9054C49.9531 46.4269 50.5562 46.8662 51.7205 46.6889C52.1547 46.6229 53.6599 46.2971 53.8623 45.6777C53.9128 45.5268 53.8405 45.3636 53.7292 45.2509C53.5704 45.0885 52.6652 44.7371 52.4194 44.6478C51.533 44.3329 49.8527 44.0446 48.9188 44.0088C47.6938 43.9653 46.0088 44.2156 45.3099 45.2315C44.6804 46.1471 44.5387 47.99 47.6642 49.5407C49.1172 50.2613 50.8769 50.5814 52.5003 50.4034C53.428 50.297 56.0998 49.8819 57.11 47.7592C57.6532 46.6173 57.6002 45.0923 57.015 44.0088C56.6305 43.2946 56.1605 42.344 52.6739 41.9055C52.1167 41.8356 48.0151 41.3615 47.6385 41.3024C47.4299 41.2698 46.4696 41.1563 46.8065 40.7902C46.9015 40.6845 47.1925 40.6068 47.3614 40.5586C49.5149 39.9709 52.2482 40.0377 54.509 39.9112C55.0142 39.8801 56.1628 39.8108 56.7184 39.6343C57.2478 39.4696 57.6843 39.0957 57.8065 38.5151C57.8672 38.2066 57.7194 38.0612 57.4298 37.9073L57.429 37.908Z" fill="white"/>
<path d="M113.369 40.559H106.925C106.855 38.3345 106.629 36.1378 106.251 33.9778C106.187 33.6071 105.864 33.3365 105.489 33.3365H103.752C103.412 33.3365 103.156 33.6459 103.219 33.9801C103.624 36.1355 103.865 38.332 103.941 40.559H97.394C97.0944 40.559 96.8516 40.8023 96.8516 41.1031V43.0765C96.8516 43.3774 97.0944 43.6206 97.394 43.6206H103.941C103.865 45.8482 103.623 48.0441 103.219 50.1995C103.156 50.5336 103.412 50.8431 103.752 50.8431H105.489C105.864 50.8431 106.187 50.5733 106.251 50.2018C106.629 48.0418 106.855 45.8451 106.925 43.6206H113.369C113.669 43.6206 113.912 43.3774 113.912 43.0765V41.1031C113.912 40.8023 113.669 40.559 113.369 40.559Z" fill="white"/>
<path d="M24.6372 16.6757C24.8924 16.8529 25.2506 16.7216 25.5066 16.4472C27.7168 14.068 30.1349 11.9989 32.8892 10.1202C50.9597 -2.20653 77.4874 -0.414922 93.0091 15.2067C98.1074 20.3118 100.914 25.7915 102.386 30.0984C102.494 30.4131 102.788 30.6262 103.12 30.6262H104.902C105.272 30.6262 105.535 30.2616 105.416 29.9095C103.484 24.1965 99.7441 17.9256 94.3095 12.8259C78.0174 -2.50112 51.625 -4.20489 33.2347 8.32703C30.2259 10.3565 27.2366 12.9557 24.6099 15.9263C24.3508 16.2195 24.4387 16.5381 24.6364 16.6757H24.6372Z" fill="white"/>
</g>
<defs>
<clipPath id="clip0_487_4236">
<rect width="114.505" height="61.8947" fill="white"/>
</clipPath>
</defs>
</svg>
