<svg width="8" height="8" viewBox="0 0 8 8" fill="none" xmlns="http://www.w3.org/2000/svg">
<g clip-path="url(#clip0_1075_8860)">
<path d="M0.375641 6.1278C0.135193 6.36817 7.2612e-05 6.69422 0 7.03421L0 7.69222H0.658013C0.998006 7.69215 1.32405 7.55703 1.56442 7.31658L5.84103 3.03998L4.65224 1.8512L0.375641 6.1278Z" fill="#A4A4A4"/>
<path d="M7.41829 0.274163C7.34024 0.196033 7.24756 0.134052 7.14554 0.0917643C7.04352 0.0494762 6.93417 0.02771 6.82374 0.02771C6.7133 0.02771 6.60395 0.0494762 6.50193 0.0917643C6.39992 0.134052 6.30723 0.196033 6.22919 0.274163L5.10547 1.3982L6.29425 2.58698L7.41829 1.46327C7.49642 1.38522 7.5584 1.29253 7.60069 1.19052C7.64298 1.0885 7.66474 0.979149 7.66474 0.868714C7.66474 0.758279 7.64298 0.648928 7.60069 0.54691C7.5584 0.444893 7.49642 0.352211 7.41829 0.274163Z" fill="#A4A4A4"/>
</g>
<defs>
<clipPath id="clip0_1075_8860">
<rect width="7.69231" height="7.69231" fill="white"/>
</clipPath>
</defs>
</svg>
