<svg width="24" height="24" viewBox="0 0 24 24" fill="none" xmlns="http://www.w3.org/2000/svg">
<path d="M23.52 12.2726C23.52 11.4217 23.4437 10.6035 23.3018 9.81799H12V14.4598H18.4582C18.18 15.9598 17.3346 17.2308 16.0637 18.0817V21.0926H19.9418C22.2109 19.0035 23.52 15.9271 23.52 12.2726Z" fill="#4285F4"/>
<path d="M12.001 24.0005C15.241 24.0005 17.9573 22.9259 19.9427 21.0933L16.0646 18.0824C14.9901 18.8024 13.6155 19.2278 12.001 19.2278C8.8755 19.2278 6.2301 17.1168 5.28642 14.2805H1.27734V17.3896C3.25194 21.3114 7.3101 24.0005 12.001 24.0005Z" fill="#34A853"/>
<path d="M5.2854 14.2797C5.0454 13.5597 4.90908 12.7906 4.90908 11.9997C4.90908 11.2088 5.0454 10.4397 5.2854 9.71968V6.6106H1.27632C0.463679 8.2306 0 10.0634 0 11.9997C0 13.936 0.463679 15.7688 1.27632 17.3888L5.2854 14.2797Z" fill="#FBBC04"/>
<path d="M12.001 4.77276C13.7627 4.77276 15.3446 5.37816 16.5883 6.56724L20.0301 3.1254C17.9519 1.18908 15.2355 0 12.001 0C7.3101 0 3.25194 2.68908 1.27734 6.61092L5.28642 9.72C6.2301 6.88368 8.8755 4.77276 12.001 4.77276Z" fill="#E94235"/>
</svg>
