<svg width="19" height="19" viewBox="0 0 19 19" fill="none" xmlns="http://www.w3.org/2000/svg">
<rect width="18.6556" height="18.6556" rx="9.3278" fill="#282828"/>
<g clip-path="url(#clip0_578_4271)">
<path d="M13.3451 8.40915C13.0235 7.88249 12.6178 7.41204 12.1441 7.01649L13.1417 6.01894C13.2065 5.95174 13.2425 5.86175 13.2416 5.76834C13.2408 5.67492 13.2034 5.58557 13.1373 5.51951C13.0713 5.45345 12.9819 5.41599 12.8885 5.41517C12.7951 5.41436 12.7051 5.45027 12.6379 5.51517L11.553 6.60144C10.8805 6.202 10.1117 5.99381 9.32956 5.99934C7.12389 5.99934 5.86697 7.50921 5.31404 8.40915C5.14322 8.68544 5.05273 9.00385 5.05273 9.32869C5.05273 9.65352 5.14322 9.97193 5.31404 10.2482C5.63566 10.7749 6.04136 11.2453 6.51503 11.6409L5.51747 12.6384C5.48344 12.6713 5.4563 12.7106 5.43763 12.7541C5.41896 12.7975 5.40913 12.8443 5.40872 12.8916C5.40831 12.9389 5.41732 12.9858 5.43523 13.0296C5.45315 13.0734 5.4796 13.1132 5.51305 13.1466C5.5465 13.1801 5.58628 13.2065 5.63007 13.2244C5.67385 13.2424 5.72077 13.2514 5.76807 13.251C5.81538 13.2505 5.86213 13.2407 5.90559 13.222C5.94906 13.2034 5.98837 13.1762 6.02124 13.1422L7.10857 12.0549C7.78024 12.4542 8.54814 12.6628 9.32956 12.658C11.5352 12.658 12.7922 11.1482 13.3451 10.2482C13.5159 9.97193 13.6064 9.65352 13.6064 9.32869C13.6064 9.00385 13.5159 8.68544 13.3451 8.40915ZM5.92112 9.87521C5.81963 9.71098 5.76588 9.52174 5.76588 9.32869C5.76588 9.13563 5.81963 8.94639 5.92112 8.78217C6.39639 8.01049 7.47054 6.71188 9.32956 6.71188C9.92107 6.70857 10.5043 6.85113 11.0275 7.12694L10.3104 7.84411C9.96833 7.61702 9.55825 7.51527 9.14973 7.55612C8.7412 7.59696 8.35939 7.77789 8.06908 8.0682C7.77877 8.35852 7.59784 8.74033 7.55699 9.14885C7.51614 9.55738 7.6179 9.96746 7.84498 10.3095L7.022 11.1325C6.5856 10.7797 6.21321 10.3544 5.92112 9.87521ZM10.3984 9.32869C10.3984 9.61215 10.2858 9.88401 10.0853 10.0845C9.88488 10.2849 9.61303 10.3975 9.32956 10.3975C9.17085 10.3969 9.01433 10.3603 8.87175 10.2906L10.2915 8.87088C10.3612 9.01346 10.3978 9.16997 10.3984 9.32869ZM8.26075 9.32869C8.26075 9.04522 8.37336 8.77336 8.5738 8.57292C8.77424 8.37248 9.04609 8.25988 9.32956 8.25988C9.48827 8.26049 9.64479 8.29703 9.78737 8.36676L8.36763 9.78649C8.2979 9.64392 8.26136 9.4874 8.26075 9.32869ZM12.738 9.87521C12.2627 10.6469 11.1886 11.9455 9.32956 11.9455C8.73805 11.9488 8.15485 11.8062 7.63158 11.5304L8.34875 10.8133C8.69079 11.0404 9.10087 11.1421 9.50939 11.1013C9.91792 11.0604 10.2997 10.8795 10.59 10.5892C10.8804 10.2989 11.0613 9.91705 11.1021 9.50852C11.143 9.09999 11.0412 8.68992 10.8141 8.34787L11.6371 7.52489C12.0735 7.8777 12.4459 8.303 12.738 8.78217C12.8395 8.94639 12.8932 9.13563 12.8932 9.32869C12.8932 9.52174 12.8395 9.71098 12.738 9.87521Z" fill="#A4A4A4"/>
</g>
<defs>
<clipPath id="clip0_578_4271">
<rect width="8.55048" height="8.55048" fill="white" transform="translate(5.05273 5.05261)"/>
</clipPath>
</defs>
</svg>
