<svg width="28" height="28" viewBox="0 0 28 28" fill="none" xmlns="http://www.w3.org/2000/svg">
<g clip-path="url(#clip0_962_10647)">
<path d="M19.3751 5.04004H8.62306C6.65186 5.04004 5.03906 6.65284 5.03906 8.62404V19.376C5.03906 21.3472 6.65186 22.96 8.62306 22.96H19.3751C21.3463 22.96 22.9591 21.3472 22.9591 19.376V8.62404C22.9591 6.65284 21.3463 5.04004 19.3751 5.04004ZM13.9991 18.48C11.5351 18.48 9.51906 16.464 9.51906 14C9.51906 11.536 11.5351 9.52004 13.9991 9.52004C16.4631 9.52004 18.4791 11.536 18.4791 14C18.4791 16.464 16.4631 18.48 13.9991 18.48ZM18.9271 9.96804C18.4343 9.96804 18.0311 9.56484 18.0311 9.07204C18.0311 8.57924 18.4343 8.17604 18.9271 8.17604C19.4199 8.17604 19.8231 8.57924 19.8231 9.07204C19.8231 9.56484 19.4199 9.96804 18.9271 9.96804Z" fill="#828282"/>
</g>
<defs>
<clipPath id="clip0_962_10647">
<rect width="28" height="28" fill="white"/>
</clipPath>
</defs>
</svg>
