<svg width="16" height="16" viewBox="0 0 16 16" fill="none" xmlns="http://www.w3.org/2000/svg">
<rect width="16" height="16" rx="8" fill="#282828"/>
<path d="M8.47196 8.00004L10.5697 5.90257C10.6999 5.77235 10.6999 5.56124 10.5697 5.43103C10.4394 5.30082 10.2283 5.30082 10.0981 5.43103L8.00065 7.52872L5.90318 5.43103C5.77296 5.30082 5.56185 5.30082 5.43164 5.43103C5.30144 5.56125 5.30143 5.77236 5.43164 5.90257L7.52933 8.00004L5.43164 10.0975C5.30143 10.2277 5.30143 10.4388 5.43164 10.569C5.56186 10.6993 5.77297 10.6993 5.90318 10.569L8.00065 8.47135L10.0981 10.569C10.2283 10.6993 10.4394 10.6993 10.5696 10.569C10.6999 10.4388 10.6999 10.2277 10.5696 10.0975L8.47196 8.00004Z" fill="#A4A4A4"/>
</svg>
