<svg width="47" height="16" viewBox="0 0 47 16" fill="none" xmlns="http://www.w3.org/2000/svg">
<path d="M44.5176 3.83969L42.292 8.91009L39.7735 3.83969H37.8359L41.4039 10.8749L39.9335 14.1597H41.8135L46.396 3.83969H44.5159H44.5176ZM36.7655 11.6797H34.9255V10.9485C34.2615 11.5229 33.4647 11.8397 32.5047 11.8397C30.3032 11.8397 28.5815 10.0477 28.5815 7.75969C28.5815 5.47169 30.3032 3.67969 32.5047 3.67969C33.4647 3.67969 34.2615 3.99808 34.9255 4.57088V3.83969H36.7655V11.6797ZM35.1415 7.75969C35.1415 6.28129 34.1096 5.15969 32.7415 5.15969C31.3735 5.15969 30.3415 6.28129 30.3415 7.75969C30.3415 9.23811 31.3735 10.3597 32.7415 10.3597C34.1096 10.3597 35.1415 9.23811 35.1415 7.75969ZM19.4375 14.1597H21.3575V11.0157C22.0055 11.5469 22.7751 11.8397 23.6983 11.8397C25.8999 11.8397 27.6215 10.0477 27.6215 7.75969C27.6215 5.47169 25.8999 3.67969 23.6983 3.67969C22.7383 3.67969 21.9415 3.99808 21.2775 4.57088V3.83969H19.4375V14.1597ZM23.4615 5.15969C24.8295 5.15969 25.8615 6.28129 25.8615 7.75969C25.8615 9.23811 24.8295 10.3597 23.4615 10.3597C22.0935 10.3597 21.0615 9.23811 21.0615 7.75969C21.0615 6.28129 22.0935 5.15969 23.4615 5.15969Z" fill="white"/>
<path d="M16 8.00002C16 12.4176 12.4176 16 8.00002 16C3.58241 16 0 12.4176 0 8.00002C0 3.58241 3.58241 0 8.00002 0C12.4176 0 16 3.58241 16 8.00002ZM9.33918 4.24V8.26243L6.54562 4.24H4.24V11.76H6.66081V7.73762L9.45438 11.76H11.76V4.24H9.33918Z" fill="white"/>
</svg>
