<svg width="16" height="16" viewBox="0 0 16 16" fill="none" xmlns="http://www.w3.org/2000/svg">
<g clip-path="url(#clip0_908_8963)">
<path d="M15.8065 14.862L11.8271 10.8827C12.9116 9.5564 13.4447 7.86407 13.3164 6.15571C13.188 4.44736 12.408 2.85369 11.1375 1.70435C9.86711 0.555014 8.20354 -0.0620646 6.4909 -0.0192434C4.77827 0.0235778 3.14761 0.723023 1.93622 1.93442C0.724823 3.14581 0.0253784 4.77647 -0.0174429 6.4891C-0.0602641 8.20174 0.556815 9.86531 1.70615 11.1357C2.85549 12.4061 4.44916 13.1862 6.15752 13.3146C7.86587 13.4429 9.5582 12.9098 10.8845 11.8253L14.8638 15.8047C14.9895 15.9261 15.1579 15.9933 15.3327 15.9918C15.5075 15.9903 15.6747 15.9202 15.7984 15.7966C15.922 15.6729 15.9921 15.5057 15.9936 15.3309C15.9951 15.1561 15.9279 14.9877 15.8065 14.862ZM6.66847 12C5.61364 12 4.5825 11.6872 3.70543 11.1012C2.82837 10.5151 2.14478 9.68219 1.74112 8.70765C1.33745 7.73311 1.23183 6.66076 1.43762 5.62619C1.64341 4.59163 2.15136 3.64132 2.89724 2.89544C3.64312 2.14956 4.59343 1.64161 5.62799 1.43582C6.66256 1.23003 7.73491 1.33565 8.70945 1.73932C9.68399 2.14298 10.5169 2.82657 11.103 3.70363C11.689 4.58069 12.0018 5.61184 12.0018 6.66667C12.0002 8.08067 11.4378 9.43631 10.438 10.4362C9.43811 11.436 8.08247 11.9984 6.66847 12Z" fill="#FF153C"/>
</g>
<defs>
<clipPath id="clip0_908_8963">
<rect width="16" height="16" fill="white"/>
</clipPath>
</defs>
</svg>
