<svg width="16" height="16" viewBox="0 0 16 16" fill="none" xmlns="http://www.w3.org/2000/svg">
<path d="M15.4551 14.5345L11.569 10.6484C12.628 9.35326 13.1487 7.70059 13.0233 6.03227C12.898 4.36396 12.1362 2.80764 10.8956 1.68524C9.65493 0.562838 8.03034 -0.0397781 6.35785 0.00203945C4.68535 0.043857 3.09291 0.726909 1.90991 1.90991C0.726909 3.09291 0.043857 4.68535 0.00203945 6.35785C-0.0397781 8.03034 0.562838 9.65493 1.68524 10.8956C2.80764 12.1362 4.36396 12.898 6.03227 13.0233C7.70059 13.1487 9.35326 12.628 10.6484 11.569L14.5345 15.4551C14.6573 15.5737 14.8218 15.6393 14.9925 15.6378C15.1632 15.6363 15.3264 15.5679 15.4472 15.4472C15.5679 15.3264 15.6363 15.1632 15.6378 14.9925C15.6393 14.8218 15.5737 14.6573 15.4551 14.5345ZM6.53126 11.7396C5.50114 11.7396 4.49417 11.4341 3.63766 10.8618C2.78115 10.2895 2.11359 9.4761 1.71938 8.5244C1.32518 7.5727 1.22203 6.52548 1.423 5.51516C1.62396 4.50484 2.12001 3.57681 2.84841 2.84841C3.57681 2.12001 4.50484 1.62396 5.51516 1.423C6.52548 1.22203 7.5727 1.32518 8.5244 1.71938C9.4761 2.11359 10.2895 2.78115 10.8618 3.63766C11.4341 4.49417 11.7396 5.50114 11.7396 6.53126C11.738 7.91212 11.1888 9.23598 10.2124 10.2124C9.23598 11.1888 7.91212 11.738 6.53126 11.7396Z" fill="white"/>
</svg>
