<svg width="16" height="16" viewBox="0 0 16 16" fill="none" xmlns="http://www.w3.org/2000/svg">
<rect width="16" height="16" rx="8" fill="#282828"/>
<g clip-path="url(#clip0_588_4545)">
<path d="M11.4459 7.21082C10.972 6.43899 9.89401 5.14404 8.00201 5.14404C6.11001 5.14404 5.03201 6.43899 4.55809 7.21082C4.41159 7.44778 4.33398 7.72087 4.33398 7.99946C4.33398 8.27805 4.41159 8.55114 4.55809 8.7881C5.03201 9.55993 6.11001 10.8549 8.00201 10.8549C9.89401 10.8549 10.972 9.55993 11.4459 8.7881C11.5924 8.55114 11.67 8.27805 11.67 7.99946C11.67 7.72087 11.5924 7.44778 11.4459 7.21082ZM10.925 8.46818C10.518 9.13002 9.5967 10.2438 8.00201 10.2438C6.40732 10.2438 5.48607 9.13002 5.07907 8.46818C4.99202 8.32733 4.94592 8.16503 4.94592 7.99946C4.94592 7.83389 4.99202 7.67159 5.07907 7.53074C5.48607 6.8689 6.40732 5.75515 8.00201 5.75515C9.5967 5.75515 10.518 6.86768 10.925 7.53074C11.012 7.67159 11.0581 7.83389 11.0581 7.99946C11.0581 8.16503 11.012 8.32733 10.925 8.46818Z" fill="#828282"/>
<path d="M8.00239 6.47253C7.70022 6.47253 7.40484 6.56214 7.1536 6.73001C6.90236 6.89789 6.70654 7.13649 6.59091 7.41566C6.47527 7.69482 6.44502 8.00201 6.50397 8.29837C6.56292 8.59473 6.70842 8.86695 6.92209 9.08061C7.13575 9.29428 7.40797 9.43979 7.70433 9.49873C8.00069 9.55768 8.30788 9.52743 8.58704 9.4118C8.86621 9.29616 9.10481 9.10034 9.27269 8.8491C9.44056 8.59786 9.53017 8.30248 9.53017 8.00031C9.52968 7.59527 9.36856 7.20695 9.08215 6.92055C8.79574 6.63414 8.40743 6.47302 8.00239 6.47253ZM8.00239 8.91698C7.82109 8.91698 7.64386 8.86322 7.49311 8.76249C7.34237 8.66177 7.22488 8.5186 7.1555 8.35111C7.08612 8.18361 7.06796 7.9993 7.10333 7.82148C7.1387 7.64366 7.22601 7.48033 7.35421 7.35213C7.4824 7.22393 7.64574 7.13663 7.82355 7.10126C8.00137 7.06589 8.18568 7.08404 8.35318 7.15342C8.52068 7.2228 8.66384 7.34029 8.76457 7.49104C8.86529 7.64178 8.91905 7.81901 8.91905 8.00031C8.91905 8.24343 8.82248 8.47659 8.65057 8.64849C8.47866 8.8204 8.2455 8.91698 8.00239 8.91698Z" fill="#828282"/>
</g>
<defs>
<clipPath id="clip0_588_4545">
<rect width="7.33333" height="7.33333" fill="white" transform="translate(4.33398 4.33337)"/>
</clipPath>
</defs>
</svg>
