<svg width="80" height="16" viewBox="0 0 80 16" fill="none" xmlns="http://www.w3.org/2000/svg">
<g clip-path="url(#clip0_1217_3613)">
<path d="M69.5695 5.77102C68.8406 4.92702 67.8048 4.45898 66.6462 4.45898C64.3751 4.45898 62.6641 6.2544 62.6641 8.64061C62.6641 11.0268 64.3751 12.8222 66.6462 12.8222C67.8431 12.8222 68.9327 12.3082 69.6539 11.4181V12.7148H70.8585V4.57407H69.5695V5.77102ZM66.8457 11.5639C65.2191 11.5639 64.0298 10.3363 64.0298 8.64061C64.0298 6.94494 65.2114 5.71731 66.8457 5.71731C68.3956 5.71731 69.5465 6.82218 69.6539 8.40276V8.87846C69.5465 10.459 68.3956 11.5639 66.8457 11.5639Z" fill="white"/>
<path d="M78.2609 4.54297L75.5908 10.7962L72.9974 4.54297H71.5703L74.8772 12.3001L73.6036 15.3231H74.9386L76.0358 12.6837L79.665 4.54297H78.2609Z" fill="white"/>
<path d="M57.8764 4.45898C56.6795 4.45898 55.5899 4.97306 54.8687 5.86309V4.58942H53.6641V15.3235H54.9531V11.5102C55.682 12.3542 56.7178 12.8222 57.8764 12.8222C60.1475 12.8222 61.8585 11.0268 61.8585 8.64061C61.8585 6.2544 60.1475 4.45898 57.8764 4.45898ZM57.6769 11.5639C56.127 11.5639 54.9761 10.459 54.8687 8.87846V8.40276C54.9761 6.82218 56.127 5.71731 57.6769 5.71731C59.3035 5.71731 60.4928 6.94494 60.4928 8.64061C60.4928 10.3363 59.3112 11.5639 57.6769 11.5639Z" fill="white"/>
<path d="M20.2455 9.69125V6.33061H18.4961V4.56589H20.2455V2.43287L22.3862 1.85742V4.55821H25.0563V6.32294H22.3862V9.65289C22.3862 10.5353 22.8619 11.057 23.6829 11.057C24.1509 11.057 24.4962 10.9649 24.8568 10.6964L25.6241 12.2923C25.0563 12.7296 24.312 12.9368 23.4987 12.9368C21.4194 12.9445 20.2455 11.7706 20.2455 9.69125Z" fill="white"/>
<path d="M25.7344 8.6487C25.7344 6.2011 27.6295 4.375 30.1845 4.375C32.7396 4.375 34.6347 6.20878 34.6347 8.6487C34.6347 11.0963 32.7396 12.9301 30.1845 12.9301C27.6295 12.9301 25.7344 11.0963 25.7344 8.6487ZM30.1845 11.0196C31.4889 11.0196 32.471 10.0068 32.471 8.65637C32.471 7.30597 31.5042 6.2855 30.1845 6.2855C28.8802 6.2855 27.8981 7.2983 27.8981 8.6487C27.8981 9.99909 28.8802 11.0196 30.1845 11.0196Z" fill="white"/>
<path d="M35.2031 10.8047L37.3284 10.2293C37.4666 10.8891 38.0804 11.2651 39.0701 11.2651C39.8835 11.2651 40.4743 10.8968 40.4743 10.4134C40.4743 10.0528 40.0599 9.7996 39.4231 9.66149L37.8348 9.32389C36.331 9.00164 35.4026 8.20368 35.4026 7.05277C35.4026 5.44918 36.7914 4.375 38.8246 4.375C40.6431 4.375 42.0241 5.20365 42.3924 6.5387L40.3899 7.08347C40.2594 6.44663 39.6303 6.02463 38.7556 6.02463C38.019 6.02463 37.5279 6.3699 37.5279 6.85328C37.5279 7.22925 37.8655 7.42874 38.4103 7.5515L40.2901 7.98117C41.7096 8.30342 42.5689 9.09371 42.5689 10.2446C42.5689 11.9249 41.1648 12.9377 38.886 12.9377C36.8911 12.9377 35.5023 12.1321 35.2031 10.8047Z" fill="white"/>
<path d="M43.0898 10.8047L45.2152 10.2293C45.3533 10.8891 45.9671 11.2651 46.9569 11.2651C47.7702 11.2651 48.361 10.8968 48.361 10.4134C48.361 10.0528 47.9466 9.7996 47.3098 9.66149L45.7216 9.32389C44.2177 9.00164 43.2893 8.20368 43.2893 7.05277C43.2893 5.44918 44.6781 4.375 46.7113 4.375C48.5298 4.375 49.9109 5.20365 50.2791 6.5387L48.2766 7.08347C48.1461 6.44663 47.517 6.02463 46.6423 6.02463C45.9057 6.02463 45.4147 6.3699 45.4147 6.85328C45.4147 7.22925 45.7523 7.42874 46.297 7.5515L48.1538 7.9735C49.5733 8.29575 50.4326 9.08604 50.4326 10.2369C50.4326 11.9173 49.0285 12.9301 46.7497 12.9301C44.7701 12.9377 43.3814 12.1321 43.0898 10.8047Z" fill="white"/>
<path d="M9.08244 3.48194L9.76531 0.274745C9.796 0.113618 9.65789 -0.0321633 9.49677 0.00620023C8.50699 0.182672 7.47884 0.489581 6.45837 0.926925C1.8701 2.86812 -0.899751 6.67378 0.2665 9.42828C1.14886 11.4922 3.99544 12.3746 7.30237 11.8605L6.6195 15.0677C6.58881 15.2288 6.72692 15.3746 6.88805 15.3363C7.87783 15.1598 8.90597 14.8529 9.92644 14.4155C14.5147 12.4743 17.2846 8.66868 16.1183 5.90651C15.2436 3.85023 12.397 2.96786 9.08244 3.48194Z" fill="white"/>
</g>
<defs>
<clipPath id="clip0_1217_3613">
<rect width="80" height="16" fill="white"/>
</clipPath>
</defs>
</svg>
