<svg width="124" height="31" viewBox="0 0 124 31" fill="none" xmlns="http://www.w3.org/2000/svg">
<path d="M81.2544 17.0362L87.3043 29.1507H96.6892V0.729614H87.719V12.5597C87.7181 12.7379 87.6562 12.9105 87.544 13.0497C87.4327 13.189 87.2765 13.2869 87.1023 13.3277C86.9281 13.3686 86.745 13.35 86.5825 13.275C86.4191 13.2001 86.2872 13.0731 86.2055 12.9142L80.1385 0.729614H70.7168V29.1507H79.7283V17.3866C79.7265 17.2078 79.7866 17.0338 79.898 16.8936C80.0102 16.7533 80.1664 16.6553 80.3423 16.6158C80.5192 16.5667 80.7086 16.582 80.8756 16.6591C81.0435 16.7361 81.1772 16.8698 81.2544 17.0362Z" fill="#FF153C"/>
<path d="M66.682 0.729614H56.8286V29.1507H66.682V0.729614Z" fill="#FF153C"/>
<path d="M99.5913 12.2505V17.4895C99.5913 22.5843 101.524 26.2694 105.339 28.4375C111.423 31.8959 120.176 29.7607 124 26.9413V13.7138H115.101V22.032L114.931 22.0979C114.076 22.4277 112.057 22.7863 110.56 21.764C109.407 20.9808 108.818 19.5753 108.818 17.5843V11.7271C108.818 9.88445 109.648 8.69324 111.203 8.28926C112.862 7.87711 114.466 8.77978 115.126 10.4946L123.747 5.90675C121.019 1.18295 116.56 0 112.787 0C112.206 0 111.643 0.0288171 111.099 0.0741528C107.91 0.358646 105.294 1.38494 103.162 3.21516C100.898 5.14835 99.5913 8.44179 99.5913 12.2505Z" fill="#FF153C"/>
<path d="M24.4542 0.729614H0V9.04778H7.36073V29.1507H17.0893V9.04778H24.4542V0.729614Z" fill="#FF153C"/>
<path d="M44.6413 0.729594L38.4791 19.7484C38.425 19.9301 38.3054 20.0856 38.1432 20.1852C37.981 20.2848 37.7877 20.3215 37.5999 20.2884C37.4106 20.2623 37.2373 20.1683 37.1128 20.024C36.9883 19.8798 36.9212 19.6953 36.924 19.5052V0.725464H27.5894V29.1671H45.2551L54.9214 0.746112L44.6413 0.729594Z" fill="#FF153C"/>
</svg>
