<svg width="112" height="24" viewBox="0 0 112 24" fill="none" xmlns="http://www.w3.org/2000/svg">
<g opacity="0.8">
<path fill-rule="evenodd" clip-rule="evenodd" d="M57.5641 4.40405C57.5641 8.6749 58.6568 12.6904 60.5781 16.1865C60.9176 11.876 62.3132 7.86229 64.5058 4.40405H71.7065C68.1998 9.26419 66.0485 15.1671 65.8066 21.559H56.9822C53.3877 16.7567 51.2113 10.8313 51.0742 4.40405H57.5641Z" fill="#0050FF"/>
<path fill-rule="evenodd" clip-rule="evenodd" d="M79.0563 4.40405C79.0563 8.6749 80.149 12.6904 82.0703 16.1865C82.4098 11.876 83.8054 7.86229 85.998 4.40405H93.1987C89.692 9.26419 87.5408 15.1671 87.2988 21.559H78.4744C74.8799 16.7567 72.7035 10.8313 72.5664 4.40405H79.0563Z" fill="#0050FF"/>
<path fill-rule="evenodd" clip-rule="evenodd" d="M24.7357 21.5595C24.3387 15.5868 25.9406 9.50584 29.5413 4.4046H22.3764C20.6952 7.3748 19.7891 10.6649 19.6578 13.9798C18.2212 10.2122 17.816 6.14115 18.4426 2.2023H12.6652C10.4787 5.80849 9.37852 9.8884 9.36445 13.9712C7.80744 9.47094 7.48022 4.63947 8.38239 0H1.35167C0.15093 8.00097 2.05959 16.3785 7.07776 23.1822H14.1692C13.5214 19.9855 13.5586 16.6775 14.2808 13.4934C14.8602 16.3257 15.9797 19.0694 17.6397 21.5595H24.7357Z" fill="#0050FF"/>
<path fill-rule="evenodd" clip-rule="evenodd" d="M38.5101 16.7839C36.2265 16.7839 34.6502 15.0817 34.6502 12.982C34.6502 10.8823 36.2265 9.18009 38.5101 9.18009C40.7938 9.18009 42.37 10.8823 42.37 12.982C42.37 15.0817 40.7938 16.7839 38.5101 16.7839ZM43.466 4.40461C43.3855 4.84037 43.3111 5.27706 43.243 5.71455C41.7022 4.47931 39.7714 3.77856 37.6714 3.77856C32.5691 3.77856 28.543 7.86072 28.543 12.982C28.543 18.1033 32.5691 22.1854 37.6714 22.1854C39.7714 22.1854 41.7022 21.4847 43.243 20.2494C43.3111 20.6869 43.3855 21.1236 43.466 21.5594H49.268C48.2203 15.893 48.2203 10.071 49.268 4.40461H43.466Z" fill="#0050FF"/>
<mask id="mask0_1117_4307" style="mask-type:luminance" maskUnits="userSpaceOnUse" x="91" y="3" width="21" height="20">
<path fill-rule="evenodd" clip-rule="evenodd" d="M91.9961 3.77905H111.006V22.1858H91.9961V3.77905Z" fill="white"/>
</mask>
<g mask="url(#mask0_1117_4307)">
<path fill-rule="evenodd" clip-rule="evenodd" d="M98.0239 10.9974C98.553 9.24175 100.013 8.37447 101.693 8.37447C103.374 8.37447 104.76 9.28872 105.293 10.9974H98.0239ZM101.682 3.77905C95.5514 3.77905 91.9961 8.19865 91.9961 12.8969C91.9961 17.9887 95.7642 22.1858 102.379 22.1858C105.223 22.1858 108.09 21.3859 109.892 20.5017V15.4527C108.072 16.4097 105.583 17.2591 103.193 17.2591C100.346 17.2591 98.5544 16.0991 98.0426 14.3775H110.957C111.488 8.07273 107.677 3.77905 101.682 3.77905Z" fill="#0050FF"/>
</g>
</g>
</svg>
