<svg width="28" height="28" viewBox="0 0 28 28" fill="none" xmlns="http://www.w3.org/2000/svg">
<path d="M23.2648 9.08886C23.0787 8.05986 22.1909 7.31149 21.16 7.07763C19.6184 6.75022 16.7643 6.51636 13.6764 6.51636C10.5908 6.51636 7.69136 6.75022 6.14739 7.07763C5.11839 7.31149 4.22877 8.01309 4.04262 9.08886C3.85412 10.2582 3.66797 11.8952 3.66797 14C3.66797 16.1048 3.85412 17.7418 4.08799 18.9111C4.27648 19.9401 5.16423 20.6885 6.19276 20.9224C7.82981 21.2498 10.6362 21.4836 13.7241 21.4836C16.8121 21.4836 19.6184 21.2498 21.2555 20.9224C22.284 20.6885 23.1717 19.9869 23.3602 18.9111C23.5464 17.7418 23.7803 16.0571 23.828 14C23.7326 11.8952 23.4987 10.2582 23.2648 9.08886ZM11.1516 17.2741V10.7259L16.8579 14L11.1516 17.2741Z" fill="#828282"/>
</svg>
