<svg xmlns:xlink="http://www.w3.org/1999/xlink"  xmlns="http://www.w3.org/2000/svg" fill="none" viewBox="0 0 62 16"><path fill="#fff" d="M34.191 4.471v7.038c0 2.833-1.506 4.488-4.188 4.488-2.683 0-4.14-1.658-4.14-4.488V4.471c0-2.814 1.474-4.471 4.14-4.471s4.188 1.658 4.188 4.471m-2.798-.462c0-.977-.53-1.606-1.342-1.606s-1.391.63-1.391 1.606v7.982c0 .977.562 1.606 1.375 1.606s1.358-.63 1.358-1.606zM41.891 4.587V.167h2.618v15.65H41.79L38.958 6.36h-.148l.1 3.562v5.895h-2.634V.167h3.032l2.519 8.429h.167l-.1-4.009zM53.22 13.45v2.367h-6.424V.167h2.766V13.45zM57.557 4.67 58.765.168l3.048-.016-3.61 10.832v4.837h-2.75v-4.902L51.878.148l3.132.016 1.224 4.503.562 2.136h.215l.546-2.136z"></path><path fill="#FF153C" d="m15.014.167-3.34 10.382c-.1.308-.556.238-.556-.087V.167H.871v4.67h4.95v10.98h9.73L20.84.167z"></path></svg>