<svg xmlns:xlink="http://www.w3.org/1999/xlink"  xmlns="http://www.w3.org/2000/svg" fill="none" viewBox="0 0 93 16"><path fill="#fff" d="M33.321 4.471v7.039c0 2.833-1.507 4.487-4.189 4.487s-4.14-1.657-4.14-4.487V4.47c0-2.817 1.474-4.471 4.14-4.471s4.189 1.658 4.189 4.471m-2.798-.462c0-.977-.53-1.606-1.343-1.606s-1.39.63-1.39 1.606v7.982c0 .977.562 1.607 1.374 1.607s1.36-.63 1.36-1.607zM41.14 15.817l-1.16-5.432h-1.805v5.432h-2.766V.167h4.14c2.519 0 4.026 1.375 4.026 4.025v1.937c0 1.391-.53 2.451-1.244 3.113l1.59 6.575zm-2.053-7.751c1.076 0 1.674-.597 1.674-1.821v-1.89c0-1.207-.614-1.82-1.674-1.82h-.877v5.531zM48.374.167v15.65h-2.766V.167zM53.523 16c-1.706-.016-3.065-1.323-3.065-3.777V4.47C50.459 1.638 51.934 0 54.668 0s4.04 1.474 4.04 3.778v2.088h-2.75V3.993c0-1.144-.53-1.59-1.322-1.59-.794 0-1.375.63-1.375 1.59v7.998c0 1.144.578 1.607 1.358 1.607s1.375-.646 1.375-1.49V9.671h-1.39V7.385h4.108v8.43h-2.303l-.2-1.26h-.199c-.43 1.076-1.243 1.458-2.483 1.442zM63.494.167v15.65h-2.766V.167zM71.393 4.587V.167h2.618v15.65h-2.718L68.46 6.36h-.148l.1 3.563v5.897h-2.634V.167h3.032l2.519 8.43h.167l-.1-4.01zM81.743 12.589l-3.296-.032-.498 3.263H75.1L78.098.167h4.073l2.949 15.65h-2.897l-.482-3.228zm-.363-2.367-.713-4.755-.482-2.817h-.183l-.463 2.817-.729 4.755zM92.607 13.45v2.367h-6.428V.167h2.766V13.45z"></path><path fill="#FF153C" d="m14.144.167-3.341 10.382c-.1.309-.556.238-.556-.087V.167H0v4.67h4.95v10.98h9.73L19.97.167z"></path></svg>