<svg width="74" height="53" viewBox="0 0 74 53" fill="none" xmlns="http://www.w3.org/2000/svg">
<mask id="mask0_1315_15032" style="mask-type:luminance" maskUnits="userSpaceOnUse" x="0" y="0" width="74" height="53">
<path d="M73.8997 0H0V53H73.8997V0Z" fill="white"/>
</mask>
<g mask="url(#mask0_1315_15032)">
<path d="M18.5439 40.0848L17.0084 27.8926H17.0423H16.9745L14.0109 40.0848H6.79688L13.2495 13.5153H20.4664L17.7175 24.8238L17.6328 24.8998L17.6483 24.8238H17.7543L24.4654 13.5153H32.0679L23.1898 26.3364L26.2905 40.0833H18.5439V40.0848Z" fill="white"/>
<path d="M52.5625 40.0721L59.0123 13.5153H66.2221L61.2979 33.7868H66.7165L65.1881 40.0721H52.5625Z" fill="white"/>
<path d="M34.3152 16.2756L28.5547 40.0001C39.2141 33.4362 45.5693 22.7383 34.3152 16.2756Z" fill="white"/>
<path d="M39.7636 13.5073C50.0005 21.7555 45.623 33.6156 29.4531 40.0712H37.5657C46.6641 40.0712 50.2986 37.523 51.2578 32.5126C52.1689 27.7791 49.8494 26.6718 47.0864 26.1625L47.1486 25.9036C51.0049 25.9261 53.0094 23.2484 53.6239 20.0867C54.5744 15.193 51.8806 13.5073 44.0282 13.5073H39.7636Z" fill="white"/>
<path d="M33.7763 14.6195C36.7017 14.6195 39.0678 12.2599 39.0678 9.35428C39.0678 6.44869 36.7004 4.08484 33.7763 4.08484C30.8523 4.08484 28.4961 6.44166 28.4961 9.35428C28.4961 12.2669 30.8536 14.6195 33.7763 14.6195Z" fill="white"/>
<path d="M18.5439 40.0848L17.0084 27.8926H17.0423H16.9745L14.0109 40.0848H6.79688L13.2495 13.5153H20.4664L17.7175 24.8238L17.6328 24.8998L17.6483 24.8238H17.7543L24.4654 13.5153H32.0679L23.1898 26.3364L26.2905 40.0833H18.5439V40.0848Z" fill="white"/>
<path d="M52.5625 40.0721L59.0123 13.5153H66.2221L61.2979 33.7868H66.7165L65.1881 40.0721H52.5625Z" fill="white"/>
<path d="M34.3152 16.2756L28.5547 40.0001C39.2141 33.4362 45.5693 22.7383 34.3152 16.2756Z" fill="white"/>
<path d="M39.7636 13.5073C50.0005 21.7555 45.623 33.6156 29.4531 40.0712H37.5657C46.6641 40.0712 50.2986 37.523 51.2578 32.5126C52.1689 27.7791 49.8494 26.6718 47.0864 26.1625L47.1486 25.9036C51.0049 25.9261 53.0094 23.2484 53.6239 20.0867C54.5744 15.193 51.8806 13.5073 44.0282 13.5073H39.7636Z" fill="white"/>
<path d="M33.7763 14.6195C36.7017 14.6195 39.0678 12.2599 39.0678 9.35428C39.0678 6.44869 36.7004 4.08484 33.7763 4.08484C30.8523 4.08484 28.4961 6.44166 28.4961 9.35428C28.4961 12.2669 30.8536 14.6195 33.7763 14.6195Z" fill="white"/>
</g>
</svg>
