<svg width="111" height="40" viewBox="0 0 111 40" fill="none" xmlns="http://www.w3.org/2000/svg">
<g clip-path="url(#clip0_1315_15058)">
<mask id="mask0_1315_15058" style="mask-type:luminance" maskUnits="userSpaceOnUse" x="0" y="0" width="111" height="40">
<path d="M111 0H0V40H111V0Z" fill="white"/>
</mask>
<g mask="url(#mask0_1315_15058)">
<path d="M38.6584 20.2698C37.7678 16.9299 34.3051 13.8444 31.6558 12.2948C31.3241 12.0994 31.0151 11.9358 30.7197 11.7995C28.9748 10.977 27.457 10.4907 26.1392 10.2635C25.403 10.1408 24.3397 10.0227 23.6671 10.2999C22.6038 10.7407 22.9946 12.1676 23.2536 13.1037C23.3854 13.5808 23.5126 13.9307 23.8898 14.5714C24.267 15.2122 25.2349 15.9756 26.9435 16.6981C26.5891 16.8935 25.762 17.1389 25.1895 17.2889C25.8438 18.2795 26.6072 19.1883 27.4615 19.9336C29.202 21.4559 29.8518 21.4968 29.8518 21.4968C29.8518 21.4968 30.0699 20.4743 29.9745 19.4428C29.9336 18.9929 29.7336 18.6339 29.4882 18.434C28.693 17.7751 28.1114 17.0844 27.5479 16.2255C26.4255 14.5078 25.0668 11.6177 27.4388 11.2723C29.9381 13.2809 31.3968 16.8117 31.4559 19.4019C31.574 24.3369 28.5158 28.6539 25.6257 30.7669C16.5918 37.3833 7.8125 33.8615 7.8125 33.8615C7.8125 33.8615 10.748 38.074 16.142 39.4736C22.3266 41.0777 30.597 39.11 32.551 32.2301C33.0464 33.1163 32.6692 35.5156 32.6692 35.5156C32.6692 35.5156 36.2682 32.8073 37.995 28.8811C39.1174 26.3182 39.5127 23.4553 38.663 20.2562" fill="white"/>
<path d="M8.47321 12.2497C8.2869 13.7902 8.19602 15.7624 8.78222 18.3708C8.95035 16.9212 9.54564 15.1944 10.4499 13.8084C12.4948 10.6638 16.221 8.46898 19.8746 8.00093C24.6687 7.38746 29.5764 8.5326 33.4935 11.3636C36.1746 13.304 38.1149 16.1623 38.1149 16.1623C38.1149 16.1623 38.6148 13.2858 37.247 10.2276C35.3793 6.05147 31.3986 2.56154 27.277 2.40249C25.9729 2.3525 24.4551 2.66605 23.7507 2.81147C23.7826 2.13893 26.45 0.930171 26.45 0.930171C26.45 0.930171 19.6155 -1.73272 14.2079 1.95262C12.2221 3.30678 9.36842 6.02875 8.52774 11.8362C8.50502 11.968 8.4823 12.0998 8.46412 12.2452" fill="white"/>
<path d="M21.9502 28.5049C23.518 25.8738 23.5634 22.9065 22.6546 19.9209C22.0139 17.9669 20.896 17.5852 18.7602 16.7536C19.1874 16.4946 20.1098 16.1992 20.7051 16.0311C19.0192 14.118 16.5063 12.7229 14.1297 13.1137C13.2072 13.2637 12.3302 13.5364 11.6304 14.7133C13.0527 14.4861 15.1839 15.1859 16.32 16.0947C20.6233 19.5392 20.3052 25.7738 16.2746 28.7003C15.1885 29.491 13.3754 30.1908 12.0257 30.2317C10.0399 30.2862 8.38584 29.9863 6.99987 29.4546C7.23616 29.4955 10.0808 29.959 13.1073 29.0139C11.6349 27.8914 10.4716 26.2692 9.98994 25.5603C8.58124 23.4699 3.8871 15.6403 9.2765 5.09326C7.40884 5.51587 5.6048 6.30656 3.97344 8.21057C1.82858 10.7144 1.25147 13.7545 1.42415 15.7585C1.61046 17.8988 2.37843 19.3847 2.53293 19.7437C1.57411 19.5529 0.25629 17.408 0.25629 17.408C0.25629 17.408 0.0154485 18.9712 0.0154485 19.671C0.0154485 19.671 -0.793418 29.959 9.29468 32.8264C14.0161 34.167 19.51 32.572 21.9412 28.5004" fill="white"/>
<path d="M66.2659 8.68701H60.0312C55.6188 14.5308 51.9153 18.3661 50.543 19.3749C51.6699 19.893 54.3237 23.8237 57.332 31.3261H63.6348C60.6493 23.8237 57.9773 19.8294 57.1093 19.0841C58.2499 18.1389 61.6581 14.5354 66.2659 8.68701Z" fill="white"/>
<path d="M44.7025 8.68701C45.325 9.72763 46.6065 9.93666 46.3975 11.5998L43.5664 31.3261H48.7923L52.0414 8.68701H44.7025Z" fill="white"/>
<path d="M80.867 15.2852C80.6444 16.8438 80.1036 17.4255 79.0948 17.4255H72.9238L73.5373 13.1358H79.7128C80.7125 13.1358 81.0852 13.7265 80.867 15.2852ZM79.9218 24.3735C79.6719 26.1276 79.013 26.8728 77.9042 26.8728H71.5696L72.3149 21.6788H78.5222C79.6901 21.6788 80.1854 22.5195 79.9218 24.369M86.6563 14.1128C87.1653 10.5728 86.3019 8.68701 81.785 8.68701H66.8437C67.4753 9.72763 68.7568 9.93666 68.5432 11.5998L65.7031 31.3261H78.6313C82.3076 31.3261 84.8341 29.7675 85.4885 25.2233C85.9929 21.6879 85.1749 19.4113 83.071 19.4113C85.0159 19.4113 86.2065 17.2664 86.6609 14.1173" fill="white"/>
<path d="M105.024 19.8801C105.914 13.7091 105.169 12.9911 100.588 12.9911C96.0075 12.9911 95.0623 13.7091 94.1762 19.8801C93.2719 26.1466 93.9853 27.0554 98.5659 27.0554C103.147 27.0554 104.124 26.1466 105.024 19.8801ZM110.617 19.812C109.281 29.1321 105.128 31.8314 97.8842 31.8314C90.6408 31.8314 87.2599 29.1321 88.6005 19.812C89.9228 10.6145 94.0035 8.18799 101.279 8.18799C108.554 8.18799 111.94 10.6145 110.617 19.812Z" fill="white"/>
</g>
</g>
<defs>
<clipPath id="clip0_1315_15058">
<rect width="111" height="40" fill="white"/>
</clipPath>
</defs>
</svg>
