<svg width="41" height="71" viewBox="0 0 41 71" fill="none" xmlns="http://www.w3.org/2000/svg">
<mask id="path-1-outside-1_794_14300" maskUnits="userSpaceOnUse" x="-0.432617" y="0" width="41" height="71" fill="black">
<rect fill="white" x="-0.432617" width="41" height="71"/>
<path d="M3.0002 46.5H17.4002V54.6H23.3002V40.8H3.0002V3H35.1002V16.5H17.4002V27.5H26.0002C34.8002 27.5 37.3002 32.8 37.3002 41.6V54.6C37.3002 61.2 34.9002 68 26.0002 68H14.7002C7.6002 68 3.0002 64.3 3.0002 55.4V46.5Z"/>
</mask>
<path d="M3.0002 46.5H17.4002V54.6H23.3002V40.8H3.0002V3H35.1002V16.5H17.4002V27.5H26.0002C34.8002 27.5 37.3002 32.8 37.3002 41.6V54.6C37.3002 61.2 34.9002 68 26.0002 68H14.7002C7.6002 68 3.0002 64.3 3.0002 55.4V46.5Z" fill="url(#paint0_linear_794_14300)" fill-opacity="0.65"/>
<path d="M3.0002 46.5V43.5H0.000195503V46.5H3.0002ZM17.4002 46.5H20.4002V43.5H17.4002V46.5ZM17.4002 54.6H14.4002V57.6H17.4002V54.6ZM23.3002 54.6V57.6H26.3002V54.6H23.3002ZM23.3002 40.8H26.3002V37.8H23.3002V40.8ZM3.0002 40.8H0.000195503V43.8H3.0002V40.8ZM3.0002 3V-3.57628e-06H0.000195503V3H3.0002ZM35.1002 3H38.1002V-3.57628e-06H35.1002V3ZM35.1002 16.5V19.5H38.1002V16.5H35.1002ZM17.4002 16.5V13.5H14.4002V16.5H17.4002ZM17.4002 27.5H14.4002V30.5H17.4002V27.5ZM3.0002 46.5V49.5H17.4002V46.5V43.5H3.0002V46.5ZM17.4002 46.5H14.4002V54.6H17.4002H20.4002V46.5H17.4002ZM17.4002 54.6V57.6H23.3002V54.6V51.6H17.4002V54.6ZM23.3002 54.6H26.3002V40.8H23.3002H20.3002V54.6H23.3002ZM23.3002 40.8V37.8H3.0002V40.8V43.8H23.3002V40.8ZM3.0002 40.8H6.0002V3H3.0002H0.000195503V40.8H3.0002ZM3.0002 3V6H35.1002V3V-3.57628e-06H3.0002V3ZM35.1002 3H32.1002V16.5H35.1002H38.1002V3H35.1002ZM35.1002 16.5V13.5H17.4002V16.5V19.5H35.1002V16.5ZM17.4002 16.5H14.4002V27.5H17.4002H20.4002V16.5H17.4002ZM17.4002 27.5V30.5H26.0002V27.5V24.5H17.4002V27.5ZM26.0002 27.5V30.5C29.7619 30.5 31.5119 31.592 32.5056 32.9889C33.6679 34.6228 34.3002 37.3497 34.3002 41.6H37.3002H40.3002C40.3002 37.0503 39.6825 32.7272 37.3948 29.5111C34.9385 26.058 31.0385 24.5 26.0002 24.5V27.5ZM37.3002 41.6H34.3002V54.6H37.3002H40.3002V41.6H37.3002ZM37.3002 54.6H34.3002C34.3002 57.6231 33.7357 60.2763 32.5049 62.0911C31.4066 63.7104 29.5596 65 26.0002 65V68V71C31.3408 71 35.1438 68.8896 37.4705 65.4589C39.6647 62.2237 40.3002 58.1769 40.3002 54.6H37.3002ZM26.0002 68V65H14.7002V68V71H26.0002V68ZM14.7002 68V65C11.6423 65 9.60051 64.2077 8.30902 62.9162C7.01912 61.6263 6.0002 59.361 6.0002 55.4H3.0002H0.000195503C0.000195503 60.339 1.28127 64.3737 4.06638 67.1588C6.84988 69.9423 10.6581 71 14.7002 71V68ZM3.0002 55.4H6.0002V46.5H3.0002H0.000195503V55.4H3.0002Z" fill="url(#paint1_linear_794_14300)" fill-opacity="0.2" mask="url(#path-1-outside-1_794_14300)"/>
<defs>
<linearGradient id="paint0_linear_794_14300" x1="20.0674" y1="3" x2="20.0674" y2="68" gradientUnits="userSpaceOnUse">
<stop stop-color="white"/>
<stop offset="1" stop-color="#999999"/>
</linearGradient>
<linearGradient id="paint1_linear_794_14300" x1="20.0674" y1="3" x2="20.0674" y2="68" gradientUnits="userSpaceOnUse">
<stop stop-color="#999999"/>
<stop offset="1" stop-color="white"/>
</linearGradient>
</defs>
</svg>
