<svg width="72" height="71" viewBox="0 0 72 71" fill="none" xmlns="http://www.w3.org/2000/svg">
<mask id="path-1-outside-1_794_14321" maskUnits="userSpaceOnUse" x="-0.161133" y="0" width="72" height="71" fill="black">
<rect fill="white" x="-0.161133" width="72" height="71"/>
<path d="M10.8998 3H25.6998V68H10.8998V23.4C9.2998 26.6 5.3998 28.1 2.9998 28.1V15.6C7.3998 15.2 10.8998 10.9 10.8998 3ZM34.2717 46.5H48.6717V54.6H54.5717V40.8H34.2717V3H66.3717V16.5H48.6717V27.5H57.2717C66.0717 27.5 68.5717 32.8 68.5717 41.6V54.6C68.5717 61.2 66.1717 68 57.2717 68H45.9717C38.8717 68 34.2717 64.3 34.2717 55.4V46.5Z"/>
</mask>
<path d="M10.8998 3H25.6998V68H10.8998V23.4C9.2998 26.6 5.3998 28.1 2.9998 28.1V15.6C7.3998 15.2 10.8998 10.9 10.8998 3ZM34.2717 46.5H48.6717V54.6H54.5717V40.8H34.2717V3H66.3717V16.5H48.6717V27.5H57.2717C66.0717 27.5 68.5717 32.8 68.5717 41.6V54.6C68.5717 61.2 66.1717 68 57.2717 68H45.9717C38.8717 68 34.2717 64.3 34.2717 55.4V46.5Z" fill="url(#paint0_linear_794_14321)" fill-opacity="0.65"/>
<path d="M10.8998 3V-3.57628e-06H7.89981V3H10.8998ZM25.6998 3H28.6998V-3.57628e-06H25.6998V3ZM25.6998 68V71H28.6998V68H25.6998ZM10.8998 68H7.89981V71H10.8998V68ZM10.8998 23.4H13.8998L8.21652 22.0584L10.8998 23.4ZM2.9998 28.1H-0.000195302V31.1H2.9998V28.1ZM2.9998 15.6L2.7282 12.6123L-0.000195302 12.8603V15.6H2.9998ZM10.8998 3V6H25.6998V3V-3.57628e-06H10.8998V3ZM25.6998 3H22.6998V68H25.6998H28.6998V3H25.6998ZM25.6998 68V65H10.8998V68V71H25.6998V68ZM10.8998 68H13.8998V23.4H10.8998H7.89981V68H10.8998ZM10.8998 23.4L8.21652 22.0584C7.76943 22.9525 6.93453 23.7267 5.85442 24.2943C4.75664 24.8711 3.65697 25.1 2.9998 25.1V28.1V31.1C4.74264 31.1 6.79297 30.5789 8.64519 29.6057C10.5151 28.6232 12.4302 27.0474 13.5831 24.7416L10.8998 23.4ZM2.9998 28.1H5.9998V15.6H2.9998H-0.000195302V28.1H2.9998ZM2.9998 15.6L3.27141 18.5877C9.94142 17.9813 13.8998 11.5965 13.8998 3H10.8998H7.89981C7.89981 10.2034 4.85819 12.4187 2.7282 12.6123L2.9998 15.6ZM34.2717 46.5V43.5H31.2717V46.5H34.2717ZM48.6717 46.5H51.6717V43.5H48.6717V46.5ZM48.6717 54.6H45.6717V57.6H48.6717V54.6ZM54.5717 54.6V57.6H57.5717V54.6H54.5717ZM54.5717 40.8H57.5717V37.8H54.5717V40.8ZM34.2717 40.8H31.2717V43.8H34.2717V40.8ZM34.2717 3V-3.57628e-06H31.2717V3H34.2717ZM66.3717 3H69.3717V-3.57628e-06H66.3717V3ZM66.3717 16.5V19.5H69.3717V16.5H66.3717ZM48.6717 16.5V13.5H45.6717V16.5H48.6717ZM48.6717 27.5H45.6717V30.5H48.6717V27.5ZM34.2717 46.5V49.5H48.6717V46.5V43.5H34.2717V46.5ZM48.6717 46.5H45.6717V54.6H48.6717H51.6717V46.5H48.6717ZM48.6717 54.6V57.6H54.5717V54.6V51.6H48.6717V54.6ZM54.5717 54.6H57.5717V40.8H54.5717H51.5717V54.6H54.5717ZM54.5717 40.8V37.8H34.2717V40.8V43.8H54.5717V40.8ZM34.2717 40.8H37.2717V3H34.2717H31.2717V40.8H34.2717ZM34.2717 3V6H66.3717V3V-3.57628e-06H34.2717V3ZM66.3717 3H63.3717V16.5H66.3717H69.3717V3H66.3717ZM66.3717 16.5V13.5H48.6717V16.5V19.5H66.3717V16.5ZM48.6717 16.5H45.6717V27.5H48.6717H51.6717V16.5H48.6717ZM48.6717 27.5V30.5H57.2717V27.5V24.5H48.6717V27.5ZM57.2717 27.5V30.5C61.0334 30.5 62.7834 31.592 63.7771 32.9889C64.9393 34.6228 65.5717 37.3497 65.5717 41.6H68.5717H71.5717C71.5717 37.0503 70.954 32.7272 68.6663 29.5111C66.21 26.058 62.3099 24.5 57.2717 24.5V27.5ZM68.5717 41.6H65.5717V54.6H68.5717H71.5717V41.6H68.5717ZM68.5717 54.6H65.5717C65.5717 57.6231 65.0072 60.2763 63.7763 62.0911C62.6781 63.7104 60.8311 65 57.2717 65V68V71C62.6123 71 66.4153 68.8896 68.742 65.4589C70.9362 62.2237 71.5717 58.1769 71.5717 54.6H68.5717ZM57.2717 68V65H45.9717V68V71H57.2717V68ZM45.9717 68V65C42.9137 65 40.872 64.2077 39.5805 62.9162C38.2906 61.6263 37.2717 59.361 37.2717 55.4H34.2717H31.2717C31.2717 60.339 32.5528 64.3737 35.3379 67.1588C38.1214 69.9423 41.9296 71 45.9717 71V68ZM34.2717 55.4H37.2717V46.5H34.2717H31.2717V55.4H34.2717Z" fill="url(#paint1_linear_794_14321)" fill-opacity="0.2" mask="url(#path-1-outside-1_794_14321)"/>
<defs>
<linearGradient id="paint0_linear_794_14321" x1="35.8389" y1="3" x2="35.8389" y2="68" gradientUnits="userSpaceOnUse">
<stop stop-color="white"/>
<stop offset="1" stop-color="#999999"/>
</linearGradient>
<linearGradient id="paint1_linear_794_14321" x1="35.8389" y1="3" x2="35.8389" y2="68" gradientUnits="userSpaceOnUse">
<stop stop-color="#999999"/>
<stop offset="1" stop-color="white"/>
</linearGradient>
</defs>
</svg>
