<svg width="39" height="71" viewBox="0 0 39 71" fill="none" xmlns="http://www.w3.org/2000/svg">
<mask id="path-1-outside-1_794_14302" maskUnits="userSpaceOnUse" x="-0.615234" y="0" width="40" height="71" fill="black">
<rect fill="white" x="-0.615234" width="40" height="71"/>
<path d="M10.8004 68V58.5C10.8004 39.1 16.2004 25.6 20.4004 16.5H3.00039V3H35.4004V16.5C31.1004 26 25.6004 39.4 25.6004 58.5V68H10.8004Z"/>
</mask>
<path d="M10.8004 68V58.5C10.8004 39.1 16.2004 25.6 20.4004 16.5H3.00039V3H35.4004V16.5C31.1004 26 25.6004 39.4 25.6004 58.5V68H10.8004Z" fill="url(#paint0_linear_794_14302)" fill-opacity="0.65"/>
<path d="M10.8004 68H7.80039V71H10.8004V68ZM20.4004 16.5L23.1243 17.7572L25.0891 13.5H20.4004V16.5ZM3.00039 16.5H0.00039063V19.5H3.00039V16.5ZM3.00039 3V-3.57628e-06H0.00039063V3H3.00039ZM35.4004 3H38.4004V-3.57628e-06H35.4004V3ZM35.4004 16.5L38.1335 17.7371L38.4004 17.1473V16.5H35.4004ZM25.6004 68V71H28.6004V68H25.6004ZM10.8004 68H13.8004V58.5H10.8004H7.80039V68H10.8004ZM10.8004 58.5H13.8004C13.8004 39.7084 19.0153 26.6599 23.1243 17.7572L20.4004 16.5L17.6765 15.2428C13.3854 24.5401 7.80039 38.4916 7.80039 58.5H10.8004ZM20.4004 16.5V13.5H3.00039V16.5V19.5H20.4004V16.5ZM3.00039 16.5H6.00039V3H3.00039H0.00039063V16.5H3.00039ZM3.00039 3V6H35.4004V3V-3.57628e-06H3.00039V3ZM35.4004 3H32.4004V16.5H35.4004H38.4004V3H35.4004ZM35.4004 16.5L32.6673 15.2629C28.3001 24.9115 22.6004 38.7712 22.6004 58.5H25.6004H28.6004C28.6004 40.0288 33.9007 27.0885 38.1335 17.7371L35.4004 16.5ZM25.6004 58.5H22.6004V68H25.6004H28.6004V58.5H25.6004ZM25.6004 68V65H10.8004V68V71H25.6004V68Z" fill="url(#paint1_linear_794_14302)" fill-opacity="0.2" mask="url(#path-1-outside-1_794_14302)"/>
<defs>
<linearGradient id="paint0_linear_794_14302" x1="19.3848" y1="3" x2="19.3848" y2="68" gradientUnits="userSpaceOnUse">
<stop stop-color="white"/>
<stop offset="1" stop-color="#999999"/>
</linearGradient>
<linearGradient id="paint1_linear_794_14302" x1="19.3848" y1="3" x2="19.3848" y2="68" gradientUnits="userSpaceOnUse">
<stop stop-color="#999999"/>
<stop offset="1" stop-color="white"/>
</linearGradient>
</defs>
</svg>
