<svg width="73" height="71" viewBox="0 0 73 71" fill="none" xmlns="http://www.w3.org/2000/svg">
<mask id="path-1-outside-1_794_14318" maskUnits="userSpaceOnUse" x="-0.161133" y="0" width="73" height="71" fill="black">
<rect fill="white" x="-0.161133" width="73" height="71"/>
<path d="M10.8998 3H25.6998V68H10.8998V23.4C9.2998 26.6 5.3998 28.1 2.9998 28.1V15.6C7.3998 15.2 10.8998 10.9 10.8998 3ZM69.0717 68H34.7717V55.6L54.6717 23.7V15.8H48.8717V23.6H34.4717V15.4C34.4717 7.7 36.5717 3 43.9717 3H59.5717C66.8717 3 69.0717 7.7 69.0717 15.4V22.2C69.0717 24.7 68.6717 25.8 66.9717 28.6L50.0717 55.6H69.0717V68Z"/>
</mask>
<path d="M10.8998 3H25.6998V68H10.8998V23.4C9.2998 26.6 5.3998 28.1 2.9998 28.1V15.6C7.3998 15.2 10.8998 10.9 10.8998 3ZM69.0717 68H34.7717V55.6L54.6717 23.7V15.8H48.8717V23.6H34.4717V15.4C34.4717 7.7 36.5717 3 43.9717 3H59.5717C66.8717 3 69.0717 7.7 69.0717 15.4V22.2C69.0717 24.7 68.6717 25.8 66.9717 28.6L50.0717 55.6H69.0717V68Z" fill="url(#paint0_linear_794_14318)" fill-opacity="0.65"/>
<path d="M10.8998 3V-3.57628e-06H7.89981V3H10.8998ZM25.6998 3H28.6998V-3.57628e-06H25.6998V3ZM25.6998 68V71H28.6998V68H25.6998ZM10.8998 68H7.89981V71H10.8998V68ZM10.8998 23.4H13.8998L8.21652 22.0584L10.8998 23.4ZM2.9998 28.1H-0.000195302V31.1H2.9998V28.1ZM2.9998 15.6L2.7282 12.6123L-0.000195302 12.8603V15.6H2.9998ZM10.8998 3V6H25.6998V3V-3.57628e-06H10.8998V3ZM25.6998 3H22.6998V68H25.6998H28.6998V3H25.6998ZM25.6998 68V65H10.8998V68V71H25.6998V68ZM10.8998 68H13.8998V23.4H10.8998H7.89981V68H10.8998ZM10.8998 23.4L8.21652 22.0584C7.76943 22.9525 6.93453 23.7267 5.85442 24.2943C4.75664 24.8711 3.65697 25.1 2.9998 25.1V28.1V31.1C4.74264 31.1 6.79297 30.5789 8.64519 29.6057C10.5151 28.6232 12.4302 27.0474 13.5831 24.7416L10.8998 23.4ZM2.9998 28.1H5.9998V15.6H2.9998H-0.000195302V28.1H2.9998ZM2.9998 15.6L3.27141 18.5877C9.94142 17.9813 13.8998 11.5965 13.8998 3H10.8998H7.89981C7.89981 10.2034 4.85819 12.4187 2.7282 12.6123L2.9998 15.6ZM69.0717 68V71H72.0717V68H69.0717ZM34.7717 68H31.7717V71H34.7717V68ZM34.7717 55.6L32.2263 54.0122L31.7717 54.741V55.6H34.7717ZM54.6717 23.7L57.217 25.2878L57.6717 24.559V23.7H54.6717ZM54.6717 15.8H57.6717V12.8H54.6717V15.8ZM48.8717 15.8V12.8H45.8717V15.8H48.8717ZM48.8717 23.6V26.6H51.8717V23.6H48.8717ZM34.4717 23.6H31.4717V26.6H34.4717V23.6ZM66.9717 28.6L69.5146 30.1917L69.5254 30.1744L69.536 30.1569L66.9717 28.6ZM50.0717 55.6L47.5287 54.0083L44.6547 58.6H50.0717V55.6ZM69.0717 55.6H72.0717V52.6H69.0717V55.6ZM69.0717 68V65H34.7717V68V71H69.0717V68ZM34.7717 68H37.7717V55.6H34.7717H31.7717V68H34.7717ZM34.7717 55.6L37.317 57.1878L57.217 25.2878L54.6717 23.7L52.1263 22.1122L32.2263 54.0122L34.7717 55.6ZM54.6717 23.7H57.6717V15.8H54.6717H51.6717V23.7H54.6717ZM54.6717 15.8V12.8H48.8717V15.8V18.8H54.6717V15.8ZM48.8717 15.8H45.8717V23.6H48.8717H51.8717V15.8H48.8717ZM48.8717 23.6V20.6H34.4717V23.6V26.6H48.8717V23.6ZM34.4717 23.6H37.4717V15.4H34.4717H31.4717V23.6H34.4717ZM34.4717 15.4H37.4717C37.4717 11.6883 38.0059 9.35787 38.9293 7.99665C39.6733 6.90001 40.9703 6 43.9717 6V3V-3.57628e-06C39.573 -3.57628e-06 36.1201 1.44999 33.964 4.62835C31.9874 7.54212 31.4717 11.4117 31.4717 15.4H34.4717ZM43.9717 3V6H59.5717V3V-3.57628e-06H43.9717V3ZM59.5717 3V6C62.5098 6 63.8207 6.89198 64.5833 8.00655C65.5182 9.37295 66.0717 11.7084 66.0717 15.4H69.0717H72.0717C72.0717 11.3916 71.5252 7.52704 69.5351 4.61844C67.3727 1.45801 63.9336 -3.57628e-06 59.5717 -3.57628e-06V3ZM69.0717 15.4H66.0717V22.2H69.0717H72.0717V15.4H69.0717ZM69.0717 22.2H66.0717C66.0717 23.2751 65.9856 23.8213 65.8131 24.3388C65.6155 24.9317 65.2471 25.6599 64.4073 27.0431L66.9717 28.6L69.536 30.1569C70.3963 28.7401 71.0778 27.5183 71.5052 26.2362C71.9577 24.8787 72.0717 23.6249 72.0717 22.2H69.0717ZM66.9717 28.6L64.4287 27.0083L47.5287 54.0083L50.0717 55.6L52.6146 57.1917L69.5146 30.1917L66.9717 28.6ZM50.0717 55.6V58.6H69.0717V55.6V52.6H50.0717V55.6ZM69.0717 55.6H66.0717V68H69.0717H72.0717V55.6H69.0717Z" fill="url(#paint1_linear_794_14318)" fill-opacity="0.2" mask="url(#path-1-outside-1_794_14318)"/>
<defs>
<linearGradient id="paint0_linear_794_14318" x1="35.8389" y1="3" x2="35.8389" y2="68" gradientUnits="userSpaceOnUse">
<stop stop-color="white"/>
<stop offset="1" stop-color="#999999"/>
</linearGradient>
<linearGradient id="paint1_linear_794_14318" x1="35.8389" y1="3" x2="35.8389" y2="68" gradientUnits="userSpaceOnUse">
<stop stop-color="#999999"/>
<stop offset="1" stop-color="white"/>
</linearGradient>
</defs>
</svg>
