<svg width="72" height="71" viewBox="0 0 72 71" fill="none" xmlns="http://www.w3.org/2000/svg">
<mask id="path-1-outside-1_794_14325" maskUnits="userSpaceOnUse" x="-0.96582" y="0" width="73" height="71" fill="black">
<rect fill="white" x="-0.96582" width="73" height="71"/>
<path d="M10.8998 3H25.6998V68H10.8998V23.4C9.2998 26.6 5.3998 28.1 2.9998 28.1V15.6C7.3998 15.2 10.8998 10.9 10.8998 3ZM57.0717 3C64.1717 3 68.7717 6.7 68.7717 15.6V57C68.7717 64.8 64.0717 68 57.1717 68H37.2717V54.5H54.3717V43.5H45.3717C36.5717 43.5 34.0717 38.2 34.0717 29.4V16.4C34.0717 9.8 36.4717 3 45.3717 3H57.0717ZM48.0717 16.4V30.2H54.3717V16.4H48.0717Z"/>
</mask>
<path d="M10.8998 3H25.6998V68H10.8998V23.4C9.2998 26.6 5.3998 28.1 2.9998 28.1V15.6C7.3998 15.2 10.8998 10.9 10.8998 3ZM57.0717 3C64.1717 3 68.7717 6.7 68.7717 15.6V57C68.7717 64.8 64.0717 68 57.1717 68H37.2717V54.5H54.3717V43.5H45.3717C36.5717 43.5 34.0717 38.2 34.0717 29.4V16.4C34.0717 9.8 36.4717 3 45.3717 3H57.0717ZM48.0717 16.4V30.2H54.3717V16.4H48.0717Z" fill="url(#paint0_linear_794_14325)" fill-opacity="0.65"/>
<path d="M10.8998 3V-3.57628e-06H7.89981V3H10.8998ZM25.6998 3H28.6998V-3.57628e-06H25.6998V3ZM25.6998 68V71H28.6998V68H25.6998ZM10.8998 68H7.89981V71H10.8998V68ZM10.8998 23.4H13.8998L8.21652 22.0584L10.8998 23.4ZM2.9998 28.1H-0.000195302V31.1H2.9998V28.1ZM2.9998 15.6L2.7282 12.6123L-0.000195302 12.8603V15.6H2.9998ZM10.8998 3V6H25.6998V3V-3.57628e-06H10.8998V3ZM25.6998 3H22.6998V68H25.6998H28.6998V3H25.6998ZM25.6998 68V65H10.8998V68V71H25.6998V68ZM10.8998 68H13.8998V23.4H10.8998H7.89981V68H10.8998ZM10.8998 23.4L8.21652 22.0584C7.76943 22.9525 6.93453 23.7267 5.85442 24.2943C4.75664 24.8711 3.65697 25.1 2.9998 25.1V28.1V31.1C4.74264 31.1 6.79297 30.5789 8.64519 29.6057C10.5151 28.6232 12.4302 27.0474 13.5831 24.7416L10.8998 23.4ZM2.9998 28.1H5.9998V15.6H2.9998H-0.000195302V28.1H2.9998ZM2.9998 15.6L3.27141 18.5877C9.94142 17.9813 13.8998 11.5965 13.8998 3H10.8998H7.89981C7.89981 10.2034 4.85819 12.4187 2.7282 12.6123L2.9998 15.6ZM37.2717 68H34.2717V71H37.2717V68ZM37.2717 54.5V51.5H34.2717V54.5H37.2717ZM54.3717 54.5V57.5H57.3717V54.5H54.3717ZM54.3717 43.5H57.3717V40.5H54.3717V43.5ZM48.0717 16.4V13.4H45.0717V16.4H48.0717ZM48.0717 30.2H45.0717V33.2H48.0717V30.2ZM54.3717 30.2V33.2H57.3717V30.2H54.3717ZM54.3717 16.4H57.3717V13.4H54.3717V16.4ZM57.0717 3V6C60.1296 6 62.1714 6.79232 63.4629 8.08382C64.7528 9.37371 65.7717 11.639 65.7717 15.6H68.7717H71.7717C71.7717 10.661 70.4906 6.62628 67.7055 3.84118C64.922 1.05767 61.1137 -3.57628e-06 57.0717 -3.57628e-06V3ZM68.7717 15.6H65.7717V57H68.7717H71.7717V15.6H68.7717ZM68.7717 57H65.7717C65.7717 60.2787 64.8069 62.1016 63.5886 63.163C62.2957 64.2893 60.2128 65 57.1717 65V68V71C61.0306 71 64.7477 70.1107 67.5298 67.687C70.3864 65.1984 71.7717 61.5213 71.7717 57H68.7717ZM57.1717 68V65H37.2717V68V71H57.1717V68ZM37.2717 68H40.2717V54.5H37.2717H34.2717V68H37.2717ZM37.2717 54.5V57.5H54.3717V54.5V51.5H37.2717V54.5ZM54.3717 54.5H57.3717V43.5H54.3717H51.3717V54.5H54.3717ZM54.3717 43.5V40.5H45.3717V43.5V46.5H54.3717V43.5ZM45.3717 43.5V40.5C41.6099 40.5 39.86 39.408 38.8663 38.0111C37.704 36.3772 37.0717 33.6503 37.0717 29.4H34.0717H31.0717C31.0717 33.9497 31.6893 38.2728 33.9771 41.4889C36.4334 44.942 40.3334 46.5 45.3717 46.5V43.5ZM34.0717 29.4H37.0717V16.4H34.0717H31.0717V29.4H34.0717ZM34.0717 16.4H37.0717C37.0717 13.3769 37.6362 10.7237 38.867 8.9089C39.9653 7.28957 41.8123 6 45.3717 6V3V-3.57628e-06C40.0311 -3.57628e-06 36.2281 2.11043 33.9013 5.54109C31.7072 8.77628 31.0717 12.8231 31.0717 16.4H34.0717ZM45.3717 3V6H57.0717V3V-3.57628e-06H45.3717V3ZM48.0717 16.4H45.0717V30.2H48.0717H51.0717V16.4H48.0717ZM48.0717 30.2V33.2H54.3717V30.2V27.2H48.0717V30.2ZM54.3717 30.2H57.3717V16.4H54.3717H51.3717V30.2H54.3717ZM54.3717 16.4V13.4H48.0717V16.4V19.4H54.3717V16.4Z" fill="url(#paint1_linear_794_14325)" fill-opacity="0.2" mask="url(#path-1-outside-1_794_14325)"/>
<defs>
<linearGradient id="paint0_linear_794_14325" x1="36.0342" y1="3" x2="36.0342" y2="68" gradientUnits="userSpaceOnUse">
<stop stop-color="white"/>
<stop offset="1" stop-color="#999999"/>
</linearGradient>
<linearGradient id="paint1_linear_794_14325" x1="36.0342" y1="3" x2="36.0342" y2="68" gradientUnits="userSpaceOnUse">
<stop stop-color="#999999"/>
<stop offset="1" stop-color="white"/>
</linearGradient>
</defs>
</svg>
