<svg width="73" height="71" viewBox="0 0 73 71" fill="none" xmlns="http://www.w3.org/2000/svg">
<mask id="path-1-outside-1_794_14319" maskUnits="userSpaceOnUse" x="-0.379883" y="0" width="74" height="71" fill="black">
<rect fill="white" x="-0.379883" width="74" height="71"/>
<path d="M10.8998 3H25.6998V68H10.8998V23.4C9.2998 26.6 5.3998 28.1 2.9998 28.1V15.6C7.3998 15.2 10.8998 10.9 10.8998 3ZM44.7717 68C37.0717 68 33.7717 62.2 33.7717 56.4V46.9H48.8717V55.2H55.3717V41.5H48.2717V28.8H54.6717V15.8H48.8717V23.6H34.4717V15.4C34.4717 7.7 36.5717 3 43.9717 3H59.5717C66.8717 3 69.0717 7.7 69.0717 15.4V27.4C69.0717 31.2 67.6717 33.6 65.4717 34.2C68.6717 35.2 69.7717 37.8 69.7717 41.9V56.4C69.7717 62.2 66.4717 68 58.7717 68H44.7717Z"/>
</mask>
<path d="M10.8998 3H25.6998V68H10.8998V23.4C9.2998 26.6 5.3998 28.1 2.9998 28.1V15.6C7.3998 15.2 10.8998 10.9 10.8998 3ZM44.7717 68C37.0717 68 33.7717 62.2 33.7717 56.4V46.9H48.8717V55.2H55.3717V41.5H48.2717V28.8H54.6717V15.8H48.8717V23.6H34.4717V15.4C34.4717 7.7 36.5717 3 43.9717 3H59.5717C66.8717 3 69.0717 7.7 69.0717 15.4V27.4C69.0717 31.2 67.6717 33.6 65.4717 34.2C68.6717 35.2 69.7717 37.8 69.7717 41.9V56.4C69.7717 62.2 66.4717 68 58.7717 68H44.7717Z" fill="url(#paint0_linear_794_14319)" fill-opacity="0.65"/>
<path d="M10.8998 3V-3.57628e-06H7.89981V3H10.8998ZM25.6998 3H28.6998V-3.57628e-06H25.6998V3ZM25.6998 68V71H28.6998V68H25.6998ZM10.8998 68H7.89981V71H10.8998V68ZM10.8998 23.4H13.8998L8.21652 22.0584L10.8998 23.4ZM2.9998 28.1H-0.000195302V31.1H2.9998V28.1ZM2.9998 15.6L2.7282 12.6123L-0.000195302 12.8603V15.6H2.9998ZM10.8998 3V6H25.6998V3V-3.57628e-06H10.8998V3ZM25.6998 3H22.6998V68H25.6998H28.6998V3H25.6998ZM25.6998 68V65H10.8998V68V71H25.6998V68ZM10.8998 68H13.8998V23.4H10.8998H7.89981V68H10.8998ZM10.8998 23.4L8.21652 22.0584C7.76943 22.9525 6.93453 23.7267 5.85442 24.2943C4.75664 24.8711 3.65697 25.1 2.9998 25.1V28.1V31.1C4.74264 31.1 6.79297 30.5789 8.64519 29.6057C10.5151 28.6232 12.4302 27.0474 13.5831 24.7416L10.8998 23.4ZM2.9998 28.1H5.9998V15.6H2.9998H-0.000195302V28.1H2.9998ZM2.9998 15.6L3.27141 18.5877C9.94142 17.9813 13.8998 11.5965 13.8998 3H10.8998H7.89981C7.89981 10.2034 4.85819 12.4187 2.7282 12.6123L2.9998 15.6ZM33.7717 46.9V43.9H30.7717V46.9H33.7717ZM48.8717 46.9H51.8717V43.9H48.8717V46.9ZM48.8717 55.2H45.8717V58.2H48.8717V55.2ZM55.3717 55.2V58.2H58.3717V55.2H55.3717ZM55.3717 41.5H58.3717V38.5H55.3717V41.5ZM48.2717 41.5H45.2717V44.5H48.2717V41.5ZM48.2717 28.8V25.8H45.2717V28.8H48.2717ZM54.6717 28.8V31.8H57.6717V28.8H54.6717ZM54.6717 15.8H57.6717V12.8H54.6717V15.8ZM48.8717 15.8V12.8H45.8717V15.8H48.8717ZM48.8717 23.6V26.6H51.8717V23.6H48.8717ZM34.4717 23.6H31.4717V26.6H34.4717V23.6ZM65.4717 34.2L64.6823 31.3057L54.7875 34.0043L64.5769 37.0634L65.4717 34.2ZM44.7717 68V65C41.7569 65 39.8811 63.9051 38.7019 62.4702C37.4521 60.9495 36.7717 58.7743 36.7717 56.4H33.7717H30.7717C30.7717 59.8257 31.7413 63.4505 34.0665 66.2798C36.4622 69.1949 40.0865 71 44.7717 71V68ZM33.7717 56.4H36.7717V46.9H33.7717H30.7717V56.4H33.7717ZM33.7717 46.9V49.9H48.8717V46.9V43.9H33.7717V46.9ZM48.8717 46.9H45.8717V55.2H48.8717H51.8717V46.9H48.8717ZM48.8717 55.2V58.2H55.3717V55.2V52.2H48.8717V55.2ZM55.3717 55.2H58.3717V41.5H55.3717H52.3717V55.2H55.3717ZM55.3717 41.5V38.5H48.2717V41.5V44.5H55.3717V41.5ZM48.2717 41.5H51.2717V28.8H48.2717H45.2717V41.5H48.2717ZM48.2717 28.8V31.8H54.6717V28.8V25.8H48.2717V28.8ZM54.6717 28.8H57.6717V15.8H54.6717H51.6717V28.8H54.6717ZM54.6717 15.8V12.8H48.8717V15.8V18.8H54.6717V15.8ZM48.8717 15.8H45.8717V23.6H48.8717H51.8717V15.8H48.8717ZM48.8717 23.6V20.6H34.4717V23.6V26.6H48.8717V23.6ZM34.4717 23.6H37.4717V15.4H34.4717H31.4717V23.6H34.4717ZM34.4717 15.4H37.4717C37.4717 11.6883 38.0059 9.35787 38.9293 7.99665C39.6733 6.90001 40.9703 6 43.9717 6V3V-3.57628e-06C39.573 -3.57628e-06 36.1201 1.44999 33.964 4.62835C31.9874 7.54212 31.4717 11.4117 31.4717 15.4H34.4717ZM43.9717 3V6H59.5717V3V-3.57628e-06H43.9717V3ZM59.5717 3V6C62.5098 6 63.8207 6.89198 64.5833 8.00655C65.5182 9.37295 66.0717 11.7084 66.0717 15.4H69.0717H72.0717C72.0717 11.3916 71.5252 7.52704 69.5351 4.61844C67.3727 1.45801 63.9336 -3.57628e-06 59.5717 -3.57628e-06V3ZM69.0717 15.4H66.0717V27.4H69.0717H72.0717V15.4H69.0717ZM69.0717 27.4H66.0717C66.0717 30.6999 64.9058 31.2448 64.6823 31.3057L65.4717 34.2L66.261 37.0943C70.4376 35.9552 72.0717 31.7001 72.0717 27.4H69.0717ZM65.4717 34.2L64.5769 37.0634C65.4773 37.3448 65.8869 37.7507 66.1647 38.2805C66.5133 38.9454 66.7717 40.0567 66.7717 41.9H69.7717H72.7717C72.7717 39.6433 72.4801 37.4046 71.4787 35.4945C70.4064 33.4493 68.6661 32.0552 66.3665 31.3366L65.4717 34.2ZM69.7717 41.9H66.7717V56.4H69.7717H72.7717V41.9H69.7717ZM69.7717 56.4H66.7717C66.7717 58.7743 66.0913 60.9495 64.8415 62.4702C63.6622 63.9051 61.7865 65 58.7717 65V68V71C63.4569 71 67.0811 69.1949 69.4769 66.2798C71.8021 63.4505 72.7717 59.8257 72.7717 56.4H69.7717ZM58.7717 68V65H44.7717V68V71H58.7717V68Z" fill="url(#paint1_linear_794_14319)" fill-opacity="0.2" mask="url(#path-1-outside-1_794_14319)"/>
<defs>
<linearGradient id="paint0_linear_794_14319" x1="36.6201" y1="3" x2="36.6201" y2="68" gradientUnits="userSpaceOnUse">
<stop stop-color="white"/>
<stop offset="1" stop-color="#999999"/>
</linearGradient>
<linearGradient id="paint1_linear_794_14319" x1="36.6201" y1="3" x2="36.6201" y2="68" gradientUnits="userSpaceOnUse">
<stop stop-color="#999999"/>
<stop offset="1" stop-color="white"/>
</linearGradient>
</defs>
</svg>
