<svg width="42" height="71" viewBox="0 0 42 71" fill="none" xmlns="http://www.w3.org/2000/svg">
<mask id="path-1-outside-1_794_14303" maskUnits="userSpaceOnUse" x="-0.151367" y="0" width="43" height="71" fill="black">
<rect fill="white" x="-0.151367" width="43" height="71"/>
<path d="M14.0002 68C6.3002 68 3.0002 62.2 3.0002 56.4V42.2C3.0002 38.1 4.1002 35.5 7.3002 34.5C5.2002 33.9 3.7002 31.4 3.7002 27.6V15.4C3.7002 7.7 5.8002 3 13.2002 3H28.8002C36.1002 3 38.3002 7.7 38.3002 15.4V27.6C38.3002 31.4 36.9002 33.9 34.7002 34.5C37.9002 35.5 39.0002 38.1 39.0002 42.2V56.4C39.0002 62.2 35.7002 68 28.0002 68H14.0002ZM18.1002 29H23.9002V15.8H18.1002V29ZM18.1002 55.2H24.6002V41.8H18.1002V55.2Z"/>
</mask>
<path d="M14.0002 68C6.3002 68 3.0002 62.2 3.0002 56.4V42.2C3.0002 38.1 4.1002 35.5 7.3002 34.5C5.2002 33.9 3.7002 31.4 3.7002 27.6V15.4C3.7002 7.7 5.8002 3 13.2002 3H28.8002C36.1002 3 38.3002 7.7 38.3002 15.4V27.6C38.3002 31.4 36.9002 33.9 34.7002 34.5C37.9002 35.5 39.0002 38.1 39.0002 42.2V56.4C39.0002 62.2 35.7002 68 28.0002 68H14.0002ZM18.1002 29H23.9002V15.8H18.1002V29ZM18.1002 55.2H24.6002V41.8H18.1002V55.2Z" fill="url(#paint0_linear_794_14303)" fill-opacity="0.65"/>
<path d="M7.3002 34.5L8.19502 37.3634L17.7699 34.3713L8.12436 31.6154L7.3002 34.5ZM34.7002 34.5L33.9108 31.6057L24.0161 34.3043L33.8054 37.3634L34.7002 34.5ZM18.1002 29H15.1002V32H18.1002V29ZM23.9002 29V32H26.9002V29H23.9002ZM23.9002 15.8H26.9002V12.8H23.9002V15.8ZM18.1002 15.8V12.8H15.1002V15.8H18.1002ZM18.1002 55.2H15.1002V58.2H18.1002V55.2ZM24.6002 55.2V58.2H27.6002V55.2H24.6002ZM24.6002 41.8H27.6002V38.8H24.6002V41.8ZM18.1002 41.8V38.8H15.1002V41.8H18.1002ZM14.0002 68V65C10.9854 65 9.10964 63.9051 7.93041 62.4702C6.68062 60.9495 6.0002 58.7743 6.0002 56.4H3.0002H0.000195421C0.000195421 59.8257 0.969768 63.4505 3.29498 66.2798C5.69076 69.1949 9.31501 71 14.0002 71V68ZM3.0002 56.4H6.0002V42.2H3.0002H0.000195421V56.4H3.0002ZM3.0002 42.2H6.0002C6.0002 40.3567 6.2586 39.2454 6.60718 38.5805C6.88496 38.0507 7.29462 37.6448 8.19502 37.3634L7.3002 34.5L6.40537 31.6366C4.10577 32.3552 2.36543 33.7493 1.29321 35.7945C0.291789 37.7046 0.000195421 39.9433 0.000195421 42.2H3.0002ZM7.3002 34.5L8.12436 31.6154C7.9572 31.5677 6.7002 30.8788 6.7002 27.6H3.7002H0.700195C0.700195 31.9212 2.44319 36.2323 6.47603 37.3846L7.3002 34.5ZM3.7002 27.6H6.7002V15.4H3.7002H0.700195V27.6H3.7002ZM3.7002 15.4H6.7002C6.7002 11.6883 7.23446 9.35787 8.15786 7.99665C8.90178 6.90001 10.1988 6 13.2002 6V3V-3.57628e-06C8.80154 -3.57628e-06 5.34861 1.44999 3.19253 4.62835C1.21593 7.54212 0.700195 11.4117 0.700195 15.4H3.7002ZM13.2002 3V6H28.8002V3V-3.57628e-06H13.2002V3ZM28.8002 3V6C31.7383 6 33.0492 6.89198 33.8118 8.00655C34.7467 9.37295 35.3002 11.7084 35.3002 15.4H38.3002H41.3002C41.3002 11.3916 40.7537 7.52704 38.7636 4.61844C36.6012 1.45801 33.1621 -3.57628e-06 28.8002 -3.57628e-06V3ZM38.3002 15.4H35.3002V27.6H38.3002H41.3002V15.4H38.3002ZM38.3002 27.6H35.3002C35.3002 29.1617 35.0084 30.2174 34.6766 30.8412C34.3653 31.4264 34.0712 31.562 33.9108 31.6057L34.7002 34.5L35.4895 37.3943C39.7001 36.246 41.3002 31.8462 41.3002 27.6H38.3002ZM34.7002 34.5L33.8054 37.3634C34.7058 37.6448 35.1154 38.0507 35.3932 38.5805C35.7418 39.2454 36.0002 40.3567 36.0002 42.2H39.0002H42.0002C42.0002 39.9433 41.7086 37.7046 40.7072 35.7945C39.635 33.7493 37.8946 32.3552 35.595 31.6366L34.7002 34.5ZM39.0002 42.2H36.0002V56.4H39.0002H42.0002V42.2H39.0002ZM39.0002 56.4H36.0002C36.0002 58.7743 35.3198 60.9495 34.07 62.4702C32.8908 63.9051 31.015 65 28.0002 65V68V71C32.6854 71 36.3096 69.1949 38.7054 66.2798C41.0306 63.4505 42.0002 59.8257 42.0002 56.4H39.0002ZM28.0002 68V65H14.0002V68V71H28.0002V68ZM18.1002 29V32H23.9002V29V26H18.1002V29ZM23.9002 29H26.9002V15.8H23.9002H20.9002V29H23.9002ZM23.9002 15.8V12.8H18.1002V15.8V18.8H23.9002V15.8ZM18.1002 15.8H15.1002V29H18.1002H21.1002V15.8H18.1002ZM18.1002 55.2V58.2H24.6002V55.2V52.2H18.1002V55.2ZM24.6002 55.2H27.6002V41.8H24.6002H21.6002V55.2H24.6002ZM24.6002 41.8V38.8H18.1002V41.8V44.8H24.6002V41.8ZM18.1002 41.8H15.1002V55.2H18.1002H21.1002V41.8H18.1002Z" fill="url(#paint1_linear_794_14303)" fill-opacity="0.2" mask="url(#path-1-outside-1_794_14303)"/>
<defs>
<linearGradient id="paint0_linear_794_14303" x1="20.8486" y1="3" x2="20.8486" y2="68" gradientUnits="userSpaceOnUse">
<stop stop-color="white"/>
<stop offset="1" stop-color="#999999"/>
</linearGradient>
<linearGradient id="paint1_linear_794_14303" x1="20.8486" y1="3" x2="20.8486" y2="68" gradientUnits="userSpaceOnUse">
<stop stop-color="#999999"/>
<stop offset="1" stop-color="white"/>
</linearGradient>
</defs>
</svg>
