<svg width="73" height="71" viewBox="0 0 73 71" fill="none" xmlns="http://www.w3.org/2000/svg">
<mask id="path-1-outside-1_794_14305" maskUnits="userSpaceOnUse" x="-0.282227" y="0" width="73" height="71" fill="black">
<rect fill="white" x="-0.282227" width="73" height="71"/>
<path d="M10.8998 3H25.6998V68H10.8998V23.4C9.2998 26.6 5.3998 28.1 2.9998 28.1V15.6C7.3998 15.2 10.8998 10.9 10.8998 3ZM45.8717 68C38.7717 68 34.1717 63.4 34.1717 54.6V17.1C34.1717 8.4 38.7717 3 45.7717 3H57.2717C65.3717 3 69.4717 8.4 69.4717 17.2V54.6C69.4717 63.1 65.3717 68 57.6717 68H45.8717ZM48.1717 54.6H55.4717V16.5H48.1717V54.6Z"/>
</mask>
<path d="M10.8998 3H25.6998V68H10.8998V23.4C9.2998 26.6 5.3998 28.1 2.9998 28.1V15.6C7.3998 15.2 10.8998 10.9 10.8998 3ZM45.8717 68C38.7717 68 34.1717 63.4 34.1717 54.6V17.1C34.1717 8.4 38.7717 3 45.7717 3H57.2717C65.3717 3 69.4717 8.4 69.4717 17.2V54.6C69.4717 63.1 65.3717 68 57.6717 68H45.8717ZM48.1717 54.6H55.4717V16.5H48.1717V54.6Z" fill="url(#paint0_linear_794_14305)" fill-opacity="0.65"/>
<path d="M10.8998 3V-3.57628e-06H7.89981V3H10.8998ZM25.6998 3H28.6998V-3.57628e-06H25.6998V3ZM25.6998 68V71H28.6998V68H25.6998ZM10.8998 68H7.89981V71H10.8998V68ZM10.8998 23.4H13.8998L8.21652 22.0584L10.8998 23.4ZM2.9998 28.1H-0.000195302V31.1H2.9998V28.1ZM2.9998 15.6L2.7282 12.6123L-0.000195302 12.8603V15.6H2.9998ZM10.8998 3V6H25.6998V3V-3.57628e-06H10.8998V3ZM25.6998 3H22.6998V68H25.6998H28.6998V3H25.6998ZM25.6998 68V65H10.8998V68V71H25.6998V68ZM10.8998 68H13.8998V23.4H10.8998H7.89981V68H10.8998ZM10.8998 23.4L8.21652 22.0584C7.76943 22.9525 6.93453 23.7267 5.85442 24.2943C4.75664 24.8711 3.65697 25.1 2.9998 25.1V28.1V31.1C4.74264 31.1 6.79297 30.5789 8.64519 29.6057C10.5151 28.6232 12.4302 27.0474 13.5831 24.7416L10.8998 23.4ZM2.9998 28.1H5.9998V15.6H2.9998H-0.000195302V28.1H2.9998ZM2.9998 15.6L3.27141 18.5877C9.94142 17.9813 13.8998 11.5965 13.8998 3H10.8998H7.89981C7.89981 10.2034 4.85819 12.4187 2.7282 12.6123L2.9998 15.6ZM48.1717 54.6H45.1717V57.6H48.1717V54.6ZM55.4717 54.6V57.6H58.4717V54.6H55.4717ZM55.4717 16.5H58.4717V13.5H55.4717V16.5ZM48.1717 16.5V13.5H45.1717V16.5H48.1717ZM45.8717 68V65C42.9916 65 40.9426 64.0878 39.5829 62.5863C38.1889 61.0469 37.1717 58.5023 37.1717 54.6H34.1717H31.1717C31.1717 59.4977 32.4544 63.6531 35.1355 66.6137C37.8507 69.6122 41.6518 71 45.8717 71V68ZM34.1717 54.6H37.1717V17.1H34.1717H31.1717V54.6H34.1717ZM34.1717 17.1H37.1717C37.1717 13.2533 38.1882 10.4692 39.6543 8.70456C41.0733 6.99639 43.1058 6 45.7717 6V3V-3.57628e-06C41.4376 -3.57628e-06 37.67 1.70361 35.0391 4.87044C32.4552 7.98076 31.1717 12.2467 31.1717 17.1H34.1717ZM45.7717 3V6H57.2717V3V-3.57628e-06H45.7717V3ZM57.2717 3V6C60.6084 6 62.7399 7.07968 64.1026 8.71823C65.5383 10.4446 66.4717 13.2155 66.4717 17.2H69.4717H72.4717C72.4717 12.3845 71.355 8.05535 68.7158 4.88176C66.0035 1.62032 62.035 -3.57628e-06 57.2717 -3.57628e-06V3ZM69.4717 17.2H66.4717V54.6H69.4717H72.4717V17.2H69.4717ZM69.4717 54.6H66.4717C66.4717 58.4116 65.5496 60.9604 64.1946 62.5199C62.8978 64.0124 60.8561 65 57.6717 65V68V71C62.1872 71 66.0455 69.5376 68.7238 66.4551C71.3438 63.4396 72.4717 59.2884 72.4717 54.6H69.4717ZM57.6717 68V65H45.8717V68V71H57.6717V68ZM48.1717 54.6V57.6H55.4717V54.6V51.6H48.1717V54.6ZM55.4717 54.6H58.4717V16.5H55.4717H52.4717V54.6H55.4717ZM55.4717 16.5V13.5H48.1717V16.5V19.5H55.4717V16.5ZM48.1717 16.5H45.1717V54.6H48.1717H51.1717V16.5H48.1717Z" fill="url(#paint1_linear_794_14305)" fill-opacity="0.2" mask="url(#path-1-outside-1_794_14305)"/>
<defs>
<linearGradient id="paint0_linear_794_14305" x1="36.7178" y1="3" x2="36.7178" y2="68" gradientUnits="userSpaceOnUse">
<stop stop-color="white"/>
<stop offset="1" stop-color="#999999"/>
</linearGradient>
<linearGradient id="paint1_linear_794_14305" x1="36.7178" y1="3" x2="36.7178" y2="68" gradientUnits="userSpaceOnUse">
<stop stop-color="#999999"/>
<stop offset="1" stop-color="white"/>
</linearGradient>
</defs>
</svg>
