<svg width="84" height="71" viewBox="0 0 84 71" fill="none" xmlns="http://www.w3.org/2000/svg">
<mask id="path-1-outside-1_794_14326" maskUnits="userSpaceOnUse" x="-0.942383" y="0" width="85" height="71" fill="black">
<rect fill="white" x="-0.942383" width="85" height="71"/>
<path d="M37.5999 68H3.29989V55.6L23.1999 23.7V15.8H17.3999V23.6H2.99989V15.4C2.99989 7.7 5.09989 3 12.4999 3H28.0999C35.3999 3 37.5999 7.7 37.5999 15.4V22.2C37.5999 24.7 37.1999 25.8 35.4999 28.6L18.5999 55.6H37.5999V68ZM57.2671 68C50.1671 68 45.5671 63.4 45.5671 54.6V17.1C45.5671 8.4 50.1671 3 57.1671 3H68.6671C76.7671 3 80.8671 8.4 80.8671 17.2V54.6C80.8671 63.1 76.7671 68 69.0671 68H57.2671ZM59.5671 54.6H66.8671V16.5H59.5671V54.6Z"/>
</mask>
<path d="M37.5999 68H3.29989V55.6L23.1999 23.7V15.8H17.3999V23.6H2.99989V15.4C2.99989 7.7 5.09989 3 12.4999 3H28.0999C35.3999 3 37.5999 7.7 37.5999 15.4V22.2C37.5999 24.7 37.1999 25.8 35.4999 28.6L18.5999 55.6H37.5999V68ZM57.2671 68C50.1671 68 45.5671 63.4 45.5671 54.6V17.1C45.5671 8.4 50.1671 3 57.1671 3H68.6671C76.7671 3 80.8671 8.4 80.8671 17.2V54.6C80.8671 63.1 76.7671 68 69.0671 68H57.2671ZM59.5671 54.6H66.8671V16.5H59.5671V54.6Z" fill="url(#paint0_linear_794_14326)" fill-opacity="0.65"/>
<path d="M37.5999 68V71H40.5999V68H37.5999ZM3.29989 68H0.299893V71H3.29989V68ZM3.29989 55.6L0.754554 54.0122L0.299893 54.741V55.6H3.29989ZM23.1999 23.7L25.7452 25.2878L26.1999 24.559V23.7H23.1999ZM23.1999 15.8H26.1999V12.8H23.1999V15.8ZM17.3999 15.8V12.8H14.3999V15.8H17.3999ZM17.3999 23.6V26.6H20.3999V23.6H17.3999ZM2.99989 23.6H-0.000106774V26.6H2.99989V23.6ZM35.4999 28.6L38.0428 30.1917L38.0537 30.1744L38.0643 30.1569L35.4999 28.6ZM18.5999 55.6L16.057 54.0083L13.1829 58.6H18.5999V55.6ZM37.5999 55.6H40.5999V52.6H37.5999V55.6ZM37.5999 68V65H3.29989V68V71H37.5999V68ZM3.29989 68H6.29989V55.6H3.29989H0.299893V68H3.29989ZM3.29989 55.6L5.84523 57.1878L25.7452 25.2878L23.1999 23.7L20.6546 22.1122L0.754554 54.0122L3.29989 55.6ZM23.1999 23.7H26.1999V15.8H23.1999H20.1999V23.7H23.1999ZM23.1999 15.8V12.8H17.3999V15.8V18.8H23.1999V15.8ZM17.3999 15.8H14.3999V23.6H17.3999H20.3999V15.8H17.3999ZM17.3999 23.6V20.6H2.99989V23.6V26.6H17.3999V23.6ZM2.99989 23.6H5.99989V15.4H2.99989H-0.000106774V23.6H2.99989ZM2.99989 15.4H5.99989C5.99989 11.6883 6.53416 9.35787 7.45756 7.99665C8.20148 6.90001 9.49855 6 12.4999 6V3V-3.57628e-06C8.10124 -3.57628e-06 4.64831 1.44999 2.49223 4.62835C0.515628 7.54212 -0.000106774 11.4117 -0.000106774 15.4H2.99989ZM12.4999 3V6H28.0999V3V-3.57628e-06H12.4999V3ZM28.0999 3V6C31.038 6 32.3489 6.89198 33.1115 8.00655C34.0464 9.37295 34.5999 11.7084 34.5999 15.4H37.5999H40.5999C40.5999 11.3916 40.0534 7.52704 38.0633 4.61844C35.9009 1.45801 32.4618 -3.57628e-06 28.0999 -3.57628e-06V3ZM37.5999 15.4H34.5999V22.2H37.5999H40.5999V15.4H37.5999ZM37.5999 22.2H34.5999C34.5999 23.2751 34.5138 23.8213 34.3413 24.3388C34.1437 24.9317 33.7753 25.6599 32.9355 27.0431L35.4999 28.6L38.0643 30.1569C38.9245 28.7401 39.6061 27.5183 40.0334 26.2362C40.4859 24.8787 40.5999 23.6249 40.5999 22.2H37.5999ZM35.4999 28.6L32.957 27.0083L16.057 54.0083L18.5999 55.6L21.1428 57.1917L38.0428 30.1917L35.4999 28.6ZM18.5999 55.6V58.6H37.5999V55.6V52.6H18.5999V55.6ZM37.5999 55.6H34.5999V68H37.5999H40.5999V55.6H37.5999ZM59.5671 54.6H56.5671V57.6H59.5671V54.6ZM66.8671 54.6V57.6H69.8671V54.6H66.8671ZM66.8671 16.5H69.8671V13.5H66.8671V16.5ZM59.5671 16.5V13.5H56.5671V16.5H59.5671ZM57.2671 68V65C54.387 65 52.338 64.0878 50.9783 62.5863C49.5843 61.0469 48.5671 58.5023 48.5671 54.6H45.5671H42.5671C42.5671 59.4977 43.8498 63.6531 46.5309 66.6137C49.2461 69.6122 53.0472 71 57.2671 71V68ZM45.5671 54.6H48.5671V17.1H45.5671H42.5671V54.6H45.5671ZM45.5671 17.1H48.5671C48.5671 13.2533 49.5836 10.4692 51.0497 8.70456C52.4687 6.99639 54.5012 6 57.1671 6V3V-3.57628e-06C52.833 -3.57628e-06 49.0654 1.70361 46.4345 4.87044C43.8506 7.98076 42.5671 12.2467 42.5671 17.1H45.5671ZM57.1671 3V6H68.6671V3V-3.57628e-06H57.1671V3ZM68.6671 3V6C72.0038 6 74.1353 7.07968 75.498 8.71823C76.9337 10.4446 77.8671 13.2155 77.8671 17.2H80.8671H83.8671C83.8671 12.3845 82.7504 8.05535 80.1112 4.88176C77.3989 1.62032 73.4304 -3.57628e-06 68.6671 -3.57628e-06V3ZM80.8671 17.2H77.8671V54.6H80.8671H83.8671V17.2H80.8671ZM80.8671 54.6H77.8671C77.8671 58.4116 76.945 60.9604 75.59 62.5199C74.2932 64.0124 72.2515 65 69.0671 65V68V71C73.5826 71 77.4409 69.5376 80.1192 66.4551C82.7392 63.4396 83.8671 59.2884 83.8671 54.6H80.8671ZM69.0671 68V65H57.2671V68V71H69.0671V68ZM59.5671 54.6V57.6H66.8671V54.6V51.6H59.5671V54.6ZM66.8671 54.6H69.8671V16.5H66.8671H63.8671V54.6H66.8671ZM66.8671 16.5V13.5H59.5671V16.5V19.5H66.8671V16.5ZM59.5671 16.5H56.5671V54.6H59.5671H62.5671V16.5H59.5671Z" fill="url(#paint1_linear_794_14326)" fill-opacity="0.2" mask="url(#path-1-outside-1_794_14326)"/>
<defs>
<linearGradient id="paint0_linear_794_14326" x1="41.5854" y1="3" x2="41.5854" y2="68" gradientUnits="userSpaceOnUse">
<stop stop-color="white"/>
<stop offset="1" stop-color="#999999"/>
</linearGradient>
<linearGradient id="paint1_linear_794_14326" x1="41.5854" y1="3" x2="41.5854" y2="68" gradientUnits="userSpaceOnUse">
<stop stop-color="#999999"/>
<stop offset="1" stop-color="white"/>
</linearGradient>
</defs>
</svg>
