<svg width="41" height="71" viewBox="0 0 41 71" fill="none" xmlns="http://www.w3.org/2000/svg">
<mask id="path-1-outside-1_794_14297" maskUnits="userSpaceOnUse" x="-0.632812" y="0" width="42" height="71" fill="black">
<rect fill="white" x="-0.632812" width="42" height="71"/>
<path d="M37.6 68H3.3V55.6L23.2 23.7V15.8H17.4V23.6H3V15.4C3 7.7 5.1 3 12.5 3H28.1C35.4 3 37.6 7.7 37.6 15.4V22.2C37.6 24.7 37.2 25.8 35.5 28.6L18.6 55.6H37.6V68Z"/>
</mask>
<path d="M37.6 68H3.3V55.6L23.2 23.7V15.8H17.4V23.6H3V15.4C3 7.7 5.1 3 12.5 3H28.1C35.4 3 37.6 7.7 37.6 15.4V22.2C37.6 24.7 37.2 25.8 35.5 28.6L18.6 55.6H37.6V68Z" fill="url(#paint0_linear_794_14297)" fill-opacity="0.65"/>
<path d="M37.6 68V71H40.6V68H37.6ZM3.3 68H0.3V71H3.3V68ZM3.3 55.6L0.754661 54.0122L0.3 54.741V55.6H3.3ZM23.2 23.7L25.7453 25.2878L26.2 24.559V23.7H23.2ZM23.2 15.8H26.2V12.8H23.2V15.8ZM17.4 15.8V12.8H14.4V15.8H17.4ZM17.4 23.6V26.6H20.4V23.6H17.4ZM3 23.6H3.72529e-08V26.6H3V23.6ZM35.5 28.6L38.0429 30.1917L38.0538 30.1744L38.0644 30.1569L35.5 28.6ZM18.6 55.6L16.0571 54.0083L13.183 58.6H18.6V55.6ZM37.6 55.6H40.6V52.6H37.6V55.6ZM37.6 68V65H3.3V68V71H37.6V68ZM3.3 68H6.3V55.6H3.3H0.3V68H3.3ZM3.3 55.6L5.84534 57.1878L25.7453 25.2878L23.2 23.7L20.6547 22.1122L0.754661 54.0122L3.3 55.6ZM23.2 23.7H26.2V15.8H23.2H20.2V23.7H23.2ZM23.2 15.8V12.8H17.4V15.8V18.8H23.2V15.8ZM17.4 15.8H14.4V23.6H17.4H20.4V15.8H17.4ZM17.4 23.6V20.6H3V23.6V26.6H17.4V23.6ZM3 23.6H6V15.4H3H3.72529e-08V23.6H3ZM3 15.4H6C6 11.6883 6.53427 9.35787 7.45767 7.99665C8.20159 6.90001 9.49865 6 12.5 6V3V-3.57628e-06C8.10135 -3.57628e-06 4.64841 1.44999 2.49233 4.62835C0.515735 7.54212 3.72529e-08 11.4117 3.72529e-08 15.4H3ZM12.5 3V6H28.1V3V-3.57628e-06H12.5V3ZM28.1 3V6C31.0381 6 32.349 6.89198 33.1116 8.00655C34.0465 9.37295 34.6 11.7084 34.6 15.4H37.6H40.6C40.6 11.3916 40.0535 7.52704 38.0634 4.61844C35.901 1.45801 32.4619 -3.57628e-06 28.1 -3.57628e-06V3ZM37.6 15.4H34.6V22.2H37.6H40.6V15.4H37.6ZM37.6 22.2H34.6C34.6 23.2751 34.514 23.8213 34.3415 24.3388C34.1438 24.9317 33.7754 25.6599 32.9356 27.0431L35.5 28.6L38.0644 30.1569C38.9246 28.7401 39.6062 27.5183 40.0336 26.2362C40.486 24.8787 40.6 23.6249 40.6 22.2H37.6ZM35.5 28.6L32.9571 27.0083L16.0571 54.0083L18.6 55.6L21.1429 57.1917L38.0429 30.1917L35.5 28.6ZM18.6 55.6V58.6H37.6V55.6V52.6H18.6V55.6ZM37.6 55.6H34.6V68H37.6H40.6V55.6H37.6Z" fill="url(#paint1_linear_794_14297)" fill-opacity="0.2" mask="url(#path-1-outside-1_794_14297)"/>
<defs>
<linearGradient id="paint0_linear_794_14297" x1="19.8672" y1="3" x2="19.8672" y2="68" gradientUnits="userSpaceOnUse">
<stop stop-color="white"/>
<stop offset="1" stop-color="#999999"/>
</linearGradient>
<linearGradient id="paint1_linear_794_14297" x1="19.8672" y1="3" x2="19.8672" y2="68" gradientUnits="userSpaceOnUse">
<stop stop-color="#999999"/>
<stop offset="1" stop-color="white"/>
</linearGradient>
</defs>
</svg>
