<svg width="45" height="71" viewBox="0 0 45 71" fill="none" xmlns="http://www.w3.org/2000/svg">
<mask id="path-1-outside-1_794_14299" maskUnits="userSpaceOnUse" x="-0.09375" y="0" width="45" height="71" fill="black">
<rect fill="white" x="-0.09375" width="45" height="71"/>
<path d="M37.3 68H23V58.3H3V45.1L17.2 3H37.3V45.1H41.9V58.3H37.3V68ZM23 45.1V25.3C23 25 23 24 23.1 22.8C22.9 23.9 22.7 24.8 22.6 25.1L17.2 45.1H23Z"/>
</mask>
<path d="M37.3 68H23V58.3H3V45.1L17.2 3H37.3V45.1H41.9V58.3H37.3V68ZM23 45.1V25.3C23 25 23 24 23.1 22.8C22.9 23.9 22.7 24.8 22.6 25.1L17.2 45.1H23Z" fill="url(#paint0_linear_794_14299)" fill-opacity="0.65"/>
<path d="M37.3 68V71H40.3V68H37.3ZM23 68H20V71H23V68ZM23 58.3H26V55.3H23V58.3ZM3 58.3H5.96046e-08V61.3H3V58.3ZM3 45.1L0.157344 44.1412L5.96046e-08 44.6077V45.1H3ZM17.2 3V-3.57628e-06H15.0458L14.3573 2.04119L17.2 3ZM37.3 3H40.3V-3.57628e-06H37.3V3ZM37.3 45.1H34.3V48.1H37.3V45.1ZM41.9 45.1H44.9V42.1H41.9V45.1ZM41.9 58.3V61.3H44.9V58.3H41.9ZM37.3 58.3V55.3H34.3V58.3H37.3ZM23 45.1V48.1H26V45.1H23ZM23.1 22.8L26.0896 23.0491L20.1484 22.2633L23.1 22.8ZM22.6 25.1L19.754 24.1513L19.7264 24.2339L19.7037 24.318L22.6 25.1ZM17.2 45.1L14.3037 44.318L13.2826 48.1H17.2V45.1ZM37.3 68V65H23V68V71H37.3V68ZM23 68H26V58.3H23H20V68H23ZM23 58.3V55.3H3V58.3V61.3H23V58.3ZM3 58.3H6V45.1H3H5.96046e-08V58.3H3ZM3 45.1L5.84266 46.0588L20.0427 3.9588L17.2 3L14.3573 2.04119L0.157344 44.1412L3 45.1ZM17.2 3V6H37.3V3V-3.57628e-06H17.2V3ZM37.3 3H34.3V45.1H37.3H40.3V3H37.3ZM37.3 45.1V48.1H41.9V45.1V42.1H37.3V45.1ZM41.9 45.1H38.9V58.3H41.9H44.9V45.1H41.9ZM41.9 58.3V55.3H37.3V58.3V61.3H41.9V58.3ZM37.3 58.3H34.3V68H37.3H40.3V58.3H37.3ZM23 45.1H26V25.3H23H20V45.1H23ZM23 25.3H26C26 25.0229 26.0002 24.1225 26.0896 23.0491L23.1 22.8L20.1104 22.5509C19.9998 23.8775 20 24.9771 20 25.3H23ZM23.1 22.8L20.1484 22.2633C20.0537 22.7843 19.9605 23.249 19.8818 23.6089C19.7924 24.0176 19.747 24.172 19.754 24.1513L22.6 25.1L25.446 26.0487C25.6247 25.5128 25.858 24.4016 26.0516 23.3367L23.1 22.8ZM22.6 25.1L19.7037 24.318L14.3037 44.318L17.2 45.1L20.0963 45.882L25.4963 25.882L22.6 25.1ZM17.2 45.1V48.1H23V45.1V42.1H17.2V45.1Z" fill="url(#paint1_linear_794_14299)" fill-opacity="0.2" mask="url(#path-1-outside-1_794_14299)"/>
<defs>
<linearGradient id="paint0_linear_794_14299" x1="21.9062" y1="3" x2="21.9063" y2="68" gradientUnits="userSpaceOnUse">
<stop stop-color="white"/>
<stop offset="1" stop-color="#999999"/>
</linearGradient>
<linearGradient id="paint1_linear_794_14299" x1="21.9062" y1="3" x2="21.9063" y2="68" gradientUnits="userSpaceOnUse">
<stop stop-color="#999999"/>
<stop offset="1" stop-color="white"/>
</linearGradient>
</defs>
</svg>
