<svg width="41" height="71" viewBox="0 0 41 71" fill="none" xmlns="http://www.w3.org/2000/svg">
<mask id="path-1-outside-1_794_14304" maskUnits="userSpaceOnUse" x="0" y="0" width="41" height="71" fill="black">
<rect fill="white" width="41" height="71"/>
<path d="M26.0375 3C33.1375 3 37.7375 6.7 37.7375 15.6V57C37.7375 64.8 33.0375 68 26.1375 68H6.2375V54.5H23.3375V43.5H14.3375C5.5375 43.5 3.0375 38.2 3.0375 29.4V16.4C3.0375 9.8 5.4375 3 14.3375 3H26.0375ZM17.0375 16.4V30.2H23.3375V16.4H17.0375Z"/>
</mask>
<path d="M26.0375 3C33.1375 3 37.7375 6.7 37.7375 15.6V57C37.7375 64.8 33.0375 68 26.1375 68H6.2375V54.5H23.3375V43.5H14.3375C5.5375 43.5 3.0375 38.2 3.0375 29.4V16.4C3.0375 9.8 5.4375 3 14.3375 3H26.0375ZM17.0375 16.4V30.2H23.3375V16.4H17.0375Z" fill="url(#paint0_linear_794_14304)" fill-opacity="0.65"/>
<path d="M6.2375 68H3.2375V71H6.2375V68ZM6.2375 54.5V51.5H3.2375V54.5H6.2375ZM23.3375 54.5V57.5H26.3375V54.5H23.3375ZM23.3375 43.5H26.3375V40.5H23.3375V43.5ZM17.0375 16.4V13.4H14.0375V16.4H17.0375ZM17.0375 30.2H14.0375V33.2H17.0375V30.2ZM23.3375 30.2V33.2H26.3375V30.2H23.3375ZM23.3375 16.4H26.3375V13.4H23.3375V16.4ZM26.0375 3V6C29.0954 6 31.1372 6.79232 32.4287 8.08382C33.7186 9.37371 34.7375 11.639 34.7375 15.6H37.7375H40.7375C40.7375 10.661 39.4564 6.62628 36.6713 3.84118C33.8878 1.05767 30.0796 -3.57628e-06 26.0375 -3.57628e-06V3ZM37.7375 15.6H34.7375V57H37.7375H40.7375V15.6H37.7375ZM37.7375 57H34.7375C34.7375 60.2787 33.7727 62.1016 32.5544 63.163C31.2615 64.2893 29.1786 65 26.1375 65V68V71C29.9964 71 33.7135 70.1107 36.4956 67.687C39.3523 65.1984 40.7375 61.5213 40.7375 57H37.7375ZM26.1375 68V65H6.2375V68V71H26.1375V68ZM6.2375 68H9.2375V54.5H6.2375H3.2375V68H6.2375ZM6.2375 54.5V57.5H23.3375V54.5V51.5H6.2375V54.5ZM23.3375 54.5H26.3375V43.5H23.3375H20.3375V54.5H23.3375ZM23.3375 43.5V40.5H14.3375V43.5V46.5H23.3375V43.5ZM14.3375 43.5V40.5C10.5758 40.5 8.82577 39.408 7.8321 38.0111C6.66985 36.3772 6.0375 33.6503 6.0375 29.4H3.0375H0.0375002C0.0375002 33.9497 0.655154 38.2728 2.9429 41.4889C5.39923 44.942 9.29923 46.5 14.3375 46.5V43.5ZM3.0375 29.4H6.0375V16.4H3.0375H0.0375002V29.4H3.0375ZM3.0375 16.4H6.0375C6.0375 13.3769 6.60199 10.7237 7.83284 8.9089C8.9311 7.28957 10.7781 6 14.3375 6V3V-3.57628e-06C8.99692 -3.57628e-06 5.1939 2.11043 2.86716 5.54109C0.673008 8.77628 0.0375002 12.8231 0.0375002 16.4H3.0375ZM14.3375 3V6H26.0375V3V-3.57628e-06H14.3375V3ZM17.0375 16.4H14.0375V30.2H17.0375H20.0375V16.4H17.0375ZM17.0375 30.2V33.2H23.3375V30.2V27.2H17.0375V30.2ZM23.3375 30.2H26.3375V16.4H23.3375H20.3375V30.2H23.3375ZM23.3375 16.4V13.4H17.0375V16.4V19.4H23.3375V16.4Z" fill="url(#paint1_linear_794_14304)" fill-opacity="0.2" mask="url(#path-1-outside-1_794_14304)"/>
<defs>
<linearGradient id="paint0_linear_794_14304" x1="20" y1="3" x2="20" y2="68" gradientUnits="userSpaceOnUse">
<stop stop-color="white"/>
<stop offset="1" stop-color="#999999"/>
</linearGradient>
<linearGradient id="paint1_linear_794_14304" x1="20" y1="3" x2="20" y2="68" gradientUnits="userSpaceOnUse">
<stop stop-color="#999999"/>
<stop offset="1" stop-color="white"/>
</linearGradient>
</defs>
</svg>
