<svg width="41" height="71" viewBox="0 0 41 71" fill="none" xmlns="http://www.w3.org/2000/svg">
<mask id="path-1-outside-1_794_14301" maskUnits="userSpaceOnUse" x="0" y="0" width="41" height="71" fill="black">
<rect fill="white" width="41" height="71"/>
<path d="M14.9375 68C7.8375 68 3.2375 64.3 3.2375 55.4V14C3.2375 6.2 7.9375 3 14.8375 3H34.7375V16.5H17.6375V27.5H26.6375C35.4375 27.5 37.9375 32.8 37.9375 41.6V54.6C37.9375 61.2 35.5375 68 26.6375 68H14.9375ZM23.9375 54.6V40.8H17.6375V54.6H23.9375Z"/>
</mask>
<path d="M14.9375 68C7.8375 68 3.2375 64.3 3.2375 55.4V14C3.2375 6.2 7.9375 3 14.8375 3H34.7375V16.5H17.6375V27.5H26.6375C35.4375 27.5 37.9375 32.8 37.9375 41.6V54.6C37.9375 61.2 35.5375 68 26.6375 68H14.9375ZM23.9375 54.6V40.8H17.6375V54.6H23.9375Z" fill="url(#paint0_linear_794_14301)" fill-opacity="0.65"/>
<path d="M34.7375 3H37.7375V-3.57628e-06H34.7375V3ZM34.7375 16.5V19.5H37.7375V16.5H34.7375ZM17.6375 16.5V13.5H14.6375V16.5H17.6375ZM17.6375 27.5H14.6375V30.5H17.6375V27.5ZM23.9375 54.6V57.6H26.9375V54.6H23.9375ZM23.9375 40.8H26.9375V37.8H23.9375V40.8ZM17.6375 40.8V37.8H14.6375V40.8H17.6375ZM17.6375 54.6H14.6375V57.6H17.6375V54.6ZM14.9375 68V65C11.8796 65 9.83781 64.2077 8.54632 62.9162C7.25642 61.6263 6.2375 59.361 6.2375 55.4H3.2375H0.2375C0.2375 60.339 1.51858 64.3737 4.30368 67.1588C7.08719 69.9423 10.8954 71 14.9375 71V68ZM3.2375 55.4H6.2375V14H3.2375H0.2375V55.4H3.2375ZM3.2375 14H6.2375C6.2375 10.7213 7.20225 8.8984 8.4206 7.83702C9.71349 6.7107 11.7964 6 14.8375 6V3V-3.57628e-06C10.9786 -3.57628e-06 7.26151 0.889295 4.4794 3.31297C1.62275 5.8016 0.2375 9.47873 0.2375 14H3.2375ZM14.8375 3V6H34.7375V3V-3.57628e-06H14.8375V3ZM34.7375 3H31.7375V16.5H34.7375H37.7375V3H34.7375ZM34.7375 16.5V13.5H17.6375V16.5V19.5H34.7375V16.5ZM17.6375 16.5H14.6375V27.5H17.6375H20.6375V16.5H17.6375ZM17.6375 27.5V30.5H26.6375V27.5V24.5H17.6375V27.5ZM26.6375 27.5V30.5C30.3992 30.5 32.1492 31.592 33.1429 32.9889C34.3052 34.6228 34.9375 37.3497 34.9375 41.6H37.9375H40.9375C40.9375 37.0503 40.3198 32.7272 38.0321 29.5111C35.5758 26.058 31.6758 24.5 26.6375 24.5V27.5ZM37.9375 41.6H34.9375V54.6H37.9375H40.9375V41.6H37.9375ZM37.9375 54.6H34.9375C34.9375 57.6231 34.373 60.2763 33.1422 62.0911C32.0439 63.7104 30.1969 65 26.6375 65V68V71C31.9781 71 35.7811 68.8896 38.1078 65.4589C40.302 62.2237 40.9375 58.1769 40.9375 54.6H37.9375ZM26.6375 68V65H14.9375V68V71H26.6375V68ZM23.9375 54.6H26.9375V40.8H23.9375H20.9375V54.6H23.9375ZM23.9375 40.8V37.8H17.6375V40.8V43.8H23.9375V40.8ZM17.6375 40.8H14.6375V54.6H17.6375H20.6375V40.8H17.6375ZM17.6375 54.6V57.6H23.9375V54.6V51.6H17.6375V54.6Z" fill="url(#paint1_linear_794_14301)" fill-opacity="0.2" mask="url(#path-1-outside-1_794_14301)"/>
<defs>
<linearGradient id="paint0_linear_794_14301" x1="20" y1="3" x2="20" y2="68" gradientUnits="userSpaceOnUse">
<stop stop-color="white"/>
<stop offset="1" stop-color="#999999"/>
</linearGradient>
<linearGradient id="paint1_linear_794_14301" x1="20" y1="3" x2="20" y2="68" gradientUnits="userSpaceOnUse">
<stop stop-color="#999999"/>
<stop offset="1" stop-color="white"/>
</linearGradient>
</defs>
</svg>
