<svg width="76" height="71" viewBox="0 0 76 71" fill="none" xmlns="http://www.w3.org/2000/svg">
<mask id="path-1-outside-1_794_14320" maskUnits="userSpaceOnUse" x="-0.84375" y="0" width="77" height="71" fill="black">
<rect fill="white" x="-0.84375" width="77" height="71"/>
<path d="M10.9003 3H25.7003V68H10.9003V23.4C9.30035 26.6 5.40035 28.1 3.00035 28.1V15.6C7.40035 15.2 10.9003 10.9 10.9003 3ZM67.7722 68H53.4722V58.3H33.4722V45.1L47.6722 3H67.7722V45.1H72.3722V58.3H67.7722V68ZM53.4722 45.1V25.3C53.4722 25 53.4722 24 53.5722 22.8C53.3722 23.9 53.1722 24.8 53.0722 25.1L47.6722 45.1H53.4722Z"/>
</mask>
<path d="M10.9003 3H25.7003V68H10.9003V23.4C9.30035 26.6 5.40035 28.1 3.00035 28.1V15.6C7.40035 15.2 10.9003 10.9 10.9003 3ZM67.7722 68H53.4722V58.3H33.4722V45.1L47.6722 3H67.7722V45.1H72.3722V58.3H67.7722V68ZM53.4722 45.1V25.3C53.4722 25 53.4722 24 53.5722 22.8C53.3722 23.9 53.1722 24.8 53.0722 25.1L47.6722 45.1H53.4722Z" fill="url(#paint0_linear_794_14320)" fill-opacity="0.65"/>
<path d="M10.9003 3V-3.57628e-06H7.90035V3H10.9003ZM25.7003 3H28.7003V-3.57628e-06H25.7003V3ZM25.7003 68V71H28.7003V68H25.7003ZM10.9003 68H7.90035V71H10.9003V68ZM10.9003 23.4H13.9003L8.21707 22.0584L10.9003 23.4ZM3.00035 28.1H0.000346385V31.1H3.00035V28.1ZM3.00035 15.6L2.72874 12.6123L0.000346385 12.8603V15.6H3.00035ZM10.9003 3V6H25.7003V3V-3.57628e-06H10.9003V3ZM25.7003 3H22.7003V68H25.7003H28.7003V3H25.7003ZM25.7003 68V65H10.9003V68V71H25.7003V68ZM10.9003 68H13.9003V23.4H10.9003H7.90035V68H10.9003ZM10.9003 23.4L8.21707 22.0584C7.76997 22.9525 6.93508 23.7267 5.85496 24.2943C4.75718 24.8711 3.65751 25.1 3.00035 25.1V28.1V31.1C4.74319 31.1 6.79352 30.5789 8.64573 29.6057C10.5156 28.6232 12.4307 27.0474 13.5836 24.7416L10.9003 23.4ZM3.00035 28.1H6.00035V15.6H3.00035H0.000346385V28.1H3.00035ZM3.00035 15.6L3.27195 18.5877C9.94197 17.9813 13.9003 11.5965 13.9003 3H10.9003H7.90035C7.90035 10.2034 4.85873 12.4187 2.72874 12.6123L3.00035 15.6ZM67.7722 68V71H70.7722V68H67.7722ZM53.4722 68H50.4722V71H53.4722V68ZM53.4722 58.3H56.4722V55.3H53.4722V58.3ZM33.4722 58.3H30.4722V61.3H33.4722V58.3ZM33.4722 45.1L30.6296 44.1412L30.4722 44.6077V45.1H33.4722ZM47.6722 3V-3.57628e-06H45.518L44.8296 2.04119L47.6722 3ZM67.7722 3H70.7722V-3.57628e-06H67.7722V3ZM67.7722 45.1H64.7722V48.1H67.7722V45.1ZM72.3722 45.1H75.3722V42.1H72.3722V45.1ZM72.3722 58.3V61.3H75.3722V58.3H72.3722ZM67.7722 58.3V55.3H64.7722V58.3H67.7722ZM53.4722 45.1V48.1H56.4722V45.1H53.4722ZM53.5722 22.8L56.5619 23.0491L50.6206 22.2633L53.5722 22.8ZM53.0722 25.1L50.2262 24.1513L50.1986 24.2339L50.1759 24.318L53.0722 25.1ZM47.6722 45.1L44.7759 44.318L43.7548 48.1H47.6722V45.1ZM67.7722 68V65H53.4722V68V71H67.7722V68ZM53.4722 68H56.4722V58.3H53.4722H50.4722V68H53.4722ZM53.4722 58.3V55.3H33.4722V58.3V61.3H53.4722V58.3ZM33.4722 58.3H36.4722V45.1H33.4722H30.4722V58.3H33.4722ZM33.4722 45.1L36.3149 46.0588L50.5149 3.9588L47.6722 3L44.8296 2.04119L30.6296 44.1412L33.4722 45.1ZM47.6722 3V6H67.7722V3V-3.57628e-06H47.6722V3ZM67.7722 3H64.7722V45.1H67.7722H70.7722V3H67.7722ZM67.7722 45.1V48.1H72.3722V45.1V42.1H67.7722V45.1ZM72.3722 45.1H69.3722V58.3H72.3722H75.3722V45.1H72.3722ZM72.3722 58.3V55.3H67.7722V58.3V61.3H72.3722V58.3ZM67.7722 58.3H64.7722V68H67.7722H70.7722V58.3H67.7722ZM53.4722 45.1H56.4722V25.3H53.4722H50.4722V45.1H53.4722ZM53.4722 25.3H56.4722C56.4722 25.0229 56.4724 24.1225 56.5619 23.0491L53.5722 22.8L50.5826 22.5509C50.472 23.8775 50.4722 24.9771 50.4722 25.3H53.4722ZM53.5722 22.8L50.6206 22.2633C50.5259 22.7843 50.4328 23.249 50.354 23.6089C50.2646 24.0176 50.2193 24.172 50.2262 24.1513L53.0722 25.1L55.9183 26.0487C56.0969 25.5128 56.3302 24.4016 56.5238 23.3367L53.5722 22.8ZM53.0722 25.1L50.1759 24.318L44.7759 44.318L47.6722 45.1L50.5685 45.882L55.9685 25.882L53.0722 25.1ZM47.6722 45.1V48.1H53.4722V45.1V42.1H47.6722V45.1Z" fill="url(#paint1_linear_794_14320)" fill-opacity="0.2" mask="url(#path-1-outside-1_794_14320)"/>
<defs>
<linearGradient id="paint0_linear_794_14320" x1="37.2674" y1="3" x2="37.2674" y2="68" gradientUnits="userSpaceOnUse">
<stop stop-color="white"/>
<stop offset="1" stop-color="#999999"/>
</linearGradient>
<linearGradient id="paint1_linear_794_14320" x1="37.2674" y1="3" x2="37.2674" y2="68" gradientUnits="userSpaceOnUse">
<stop stop-color="#999999"/>
<stop offset="1" stop-color="white"/>
</linearGradient>
</defs>
</svg>
