<svg width="42" height="71" viewBox="0 0 42 71" fill="none" xmlns="http://www.w3.org/2000/svg">
<mask id="path-1-outside-1_794_14298" maskUnits="userSpaceOnUse" x="-0.151367" y="0" width="43" height="71" fill="black">
<rect fill="white" x="-0.151367" width="43" height="71"/>
<path d="M14.0002 68C6.3002 68 3.0002 62.2 3.0002 56.4V46.9H18.1002V55.2H24.6002V41.5H17.5002V28.8H23.9002V15.8H18.1002V23.6H3.7002V15.4C3.7002 7.7 5.8002 3 13.2002 3H28.8002C36.1002 3 38.3002 7.7 38.3002 15.4V27.4C38.3002 31.2 36.9002 33.6 34.7002 34.2C37.9002 35.2 39.0002 37.8 39.0002 41.9V56.4C39.0002 62.2 35.7002 68 28.0002 68H14.0002Z"/>
</mask>
<path d="M14.0002 68C6.3002 68 3.0002 62.2 3.0002 56.4V46.9H18.1002V55.2H24.6002V41.5H17.5002V28.8H23.9002V15.8H18.1002V23.6H3.7002V15.4C3.7002 7.7 5.8002 3 13.2002 3H28.8002C36.1002 3 38.3002 7.7 38.3002 15.4V27.4C38.3002 31.2 36.9002 33.6 34.7002 34.2C37.9002 35.2 39.0002 37.8 39.0002 41.9V56.4C39.0002 62.2 35.7002 68 28.0002 68H14.0002Z" fill="url(#paint0_linear_794_14298)" fill-opacity="0.65"/>
<path d="M3.0002 46.9V43.9H0.000195421V46.9H3.0002ZM18.1002 46.9H21.1002V43.9H18.1002V46.9ZM18.1002 55.2H15.1002V58.2H18.1002V55.2ZM24.6002 55.2V58.2H27.6002V55.2H24.6002ZM24.6002 41.5H27.6002V38.5H24.6002V41.5ZM17.5002 41.5H14.5002V44.5H17.5002V41.5ZM17.5002 28.8V25.8H14.5002V28.8H17.5002ZM23.9002 28.8V31.8H26.9002V28.8H23.9002ZM23.9002 15.8H26.9002V12.8H23.9002V15.8ZM18.1002 15.8V12.8H15.1002V15.8H18.1002ZM18.1002 23.6V26.6H21.1002V23.6H18.1002ZM3.7002 23.6H0.700195V26.6H3.7002V23.6ZM34.7002 34.2L33.9108 31.3057L24.0161 34.0043L33.8054 37.0634L34.7002 34.2ZM14.0002 68V65C10.9854 65 9.10964 63.9051 7.93041 62.4702C6.68062 60.9495 6.0002 58.7743 6.0002 56.4H3.0002H0.000195421C0.000195421 59.8257 0.969768 63.4505 3.29498 66.2798C5.69076 69.1949 9.31501 71 14.0002 71V68ZM3.0002 56.4H6.0002V46.9H3.0002H0.000195421V56.4H3.0002ZM3.0002 46.9V49.9H18.1002V46.9V43.9H3.0002V46.9ZM18.1002 46.9H15.1002V55.2H18.1002H21.1002V46.9H18.1002ZM18.1002 55.2V58.2H24.6002V55.2V52.2H18.1002V55.2ZM24.6002 55.2H27.6002V41.5H24.6002H21.6002V55.2H24.6002ZM24.6002 41.5V38.5H17.5002V41.5V44.5H24.6002V41.5ZM17.5002 41.5H20.5002V28.8H17.5002H14.5002V41.5H17.5002ZM17.5002 28.8V31.8H23.9002V28.8V25.8H17.5002V28.8ZM23.9002 28.8H26.9002V15.8H23.9002H20.9002V28.8H23.9002ZM23.9002 15.8V12.8H18.1002V15.8V18.8H23.9002V15.8ZM18.1002 15.8H15.1002V23.6H18.1002H21.1002V15.8H18.1002ZM18.1002 23.6V20.6H3.7002V23.6V26.6H18.1002V23.6ZM3.7002 23.6H6.7002V15.4H3.7002H0.700195V23.6H3.7002ZM3.7002 15.4H6.7002C6.7002 11.6883 7.23446 9.35787 8.15786 7.99665C8.90178 6.90001 10.1988 6 13.2002 6V3V-3.57628e-06C8.80154 -3.57628e-06 5.34861 1.44999 3.19253 4.62835C1.21593 7.54212 0.700195 11.4117 0.700195 15.4H3.7002ZM13.2002 3V6H28.8002V3V-3.57628e-06H13.2002V3ZM28.8002 3V6C31.7383 6 33.0492 6.89198 33.8118 8.00655C34.7467 9.37295 35.3002 11.7084 35.3002 15.4H38.3002H41.3002C41.3002 11.3916 40.7537 7.52704 38.7636 4.61844C36.6012 1.45801 33.1621 -3.57628e-06 28.8002 -3.57628e-06V3ZM38.3002 15.4H35.3002V27.4H38.3002H41.3002V15.4H38.3002ZM38.3002 27.4H35.3002C35.3002 30.6999 34.1343 31.2448 33.9108 31.3057L34.7002 34.2L35.4895 37.0943C39.6661 35.9552 41.3002 31.7001 41.3002 27.4H38.3002ZM34.7002 34.2L33.8054 37.0634C34.7058 37.3448 35.1154 37.7507 35.3932 38.2805C35.7418 38.9454 36.0002 40.0567 36.0002 41.9H39.0002H42.0002C42.0002 39.6433 41.7086 37.4046 40.7072 35.4945C39.635 33.4493 37.8946 32.0552 35.595 31.3366L34.7002 34.2ZM39.0002 41.9H36.0002V56.4H39.0002H42.0002V41.9H39.0002ZM39.0002 56.4H36.0002C36.0002 58.7743 35.3198 60.9495 34.07 62.4702C32.8908 63.9051 31.015 65 28.0002 65V68V71C32.6854 71 36.3096 69.1949 38.7054 66.2798C41.0306 63.4505 42.0002 59.8257 42.0002 56.4H39.0002ZM28.0002 68V65H14.0002V68V71H28.0002V68Z" fill="url(#paint1_linear_794_14298)" fill-opacity="0.2" mask="url(#path-1-outside-1_794_14298)"/>
<defs>
<linearGradient id="paint0_linear_794_14298" x1="20.8486" y1="3" x2="20.8486" y2="68" gradientUnits="userSpaceOnUse">
<stop stop-color="white"/>
<stop offset="1" stop-color="#999999"/>
</linearGradient>
<linearGradient id="paint1_linear_794_14298" x1="20.8486" y1="3" x2="20.8486" y2="68" gradientUnits="userSpaceOnUse">
<stop stop-color="#999999"/>
<stop offset="1" stop-color="white"/>
</linearGradient>
</defs>
</svg>
