<svg width="29" height="71" viewBox="0 0 29 71" fill="none" xmlns="http://www.w3.org/2000/svg">
<mask id="path-1-outside-1_794_14296" maskUnits="userSpaceOnUse" x="-0.0283203" y="0" width="29" height="71" fill="black">
<rect fill="white" x="-0.0283203" width="29" height="71"/>
<path d="M10.8998 3H25.6998V68H10.8998V23.4C9.2998 26.6 5.3998 28.1 2.9998 28.1V15.6C7.3998 15.2 10.8998 10.9 10.8998 3Z"/>
</mask>
<path d="M10.8998 3H25.6998V68H10.8998V23.4C9.2998 26.6 5.3998 28.1 2.9998 28.1V15.6C7.3998 15.2 10.8998 10.9 10.8998 3Z" fill="url(#paint0_linear_794_14296)" fill-opacity="0.65"/>
<path d="M10.8998 3V-3.57628e-06H7.89981V3H10.8998ZM25.6998 3H28.6998V-3.57628e-06H25.6998V3ZM25.6998 68V71H28.6998V68H25.6998ZM10.8998 68H7.89981V71H10.8998V68ZM10.8998 23.4H13.8998L8.21652 22.0584L10.8998 23.4ZM2.9998 28.1H-0.000195302V31.1H2.9998V28.1ZM2.9998 15.6L2.7282 12.6123L-0.000195302 12.8603V15.6H2.9998ZM10.8998 3V6H25.6998V3V-3.57628e-06H10.8998V3ZM25.6998 3H22.6998V68H25.6998H28.6998V3H25.6998ZM25.6998 68V65H10.8998V68V71H25.6998V68ZM10.8998 68H13.8998V23.4H10.8998H7.89981V68H10.8998ZM10.8998 23.4L8.21652 22.0584C7.76943 22.9525 6.93453 23.7267 5.85442 24.2943C4.75664 24.8711 3.65697 25.1 2.9998 25.1V28.1V31.1C4.74264 31.1 6.79297 30.5789 8.64519 29.6057C10.5151 28.6232 12.4302 27.0474 13.5831 24.7416L10.8998 23.4ZM2.9998 28.1H5.9998V15.6H2.9998H-0.000195302V28.1H2.9998ZM2.9998 15.6L3.27141 18.5877C9.94142 17.9813 13.8998 11.5965 13.8998 3H10.8998H7.89981C7.89981 10.2034 4.85819 12.4187 2.7282 12.6123L2.9998 15.6Z" fill="url(#paint1_linear_794_14296)" fill-opacity="0.2" mask="url(#path-1-outside-1_794_14296)"/>
<defs>
<linearGradient id="paint0_linear_794_14296" x1="14.4717" y1="3" x2="14.4717" y2="68" gradientUnits="userSpaceOnUse">
<stop stop-color="white"/>
<stop offset="1" stop-color="#999999"/>
</linearGradient>
<linearGradient id="paint1_linear_794_14296" x1="14.4717" y1="3" x2="14.4717" y2="68" gradientUnits="userSpaceOnUse">
<stop stop-color="#999999"/>
<stop offset="1" stop-color="white"/>
</linearGradient>
</defs>
</svg>
