<svg width="24" height="24" viewBox="0 0 24 24" fill="none" xmlns="http://www.w3.org/2000/svg">
<path d="M21.2945 24H2.70555C1.21033 24 0 22.7897 0 21.2945V2.70554C0 1.21224 1.21224 0 2.70555 0H21.2945C22.7878 0 24 1.21224 24 2.70554V21.2945C24 22.7878 22.7878 24 21.2945 24Z" fill="#E9B62E"/>
<path d="M5.19187 20.2604V8.33113H3.87256L5.58193 3.72119H8.8955V20.2604H5.19187Z" fill="white"/>
<path d="M19.5689 3.7231H10.523C10.3184 3.7231 10.1539 3.88945 10.1539 4.09213V9.09022H13.7696V6.83783H16.3241V8.82827L10.0239 17.813V20.2394H19.8958V17.0118H14.6147L19.2247 10.5395C19.37 10.3369 19.4847 10.161 19.5708 10.008C19.6568 9.85695 19.7295 9.70972 19.7868 9.5644C19.8442 9.421 19.8843 9.2623 19.9054 9.0883C19.9264 8.91431 19.9379 8.7059 19.9379 8.46115V4.09022C19.9379 3.88563 19.7715 3.72119 19.5689 3.72119V3.7231Z" fill="white"/>
</svg>
