<svg width="22" height="22" viewBox="0 0 22 22" fill="none" xmlns="http://www.w3.org/2000/svg">
<path d="M19.5215 22H2.48028C1.10955 22 0 20.8908 0 19.5211V2.48063C0 1.11092 1.10955 0 2.48028 0H19.5215C20.8904 0 22.0018 1.11092 22.0018 2.48063V19.5194C22.0018 20.8891 20.8922 21.9982 19.5215 21.9982" fill="#D92B35"/>
<path d="M5.62279 17.4131V8.15805H4.59747L5.92548 4.57974H8.49544V17.4131H5.62279Z" fill="white"/>
<path d="M16.9123 4.57974H9.77515C9.61638 4.57974 9.48877 4.70791 9.48877 4.86589V11.328C9.48877 11.6455 9.74547 11.9018 10.06 11.9018H14.4106V14.9928H12.3778V13.3131H9.58967V17.1254C9.58967 17.2834 9.71876 17.4116 9.87604 17.4116H16.9123C17.071 17.4116 17.1987 17.2834 17.1987 17.1254V4.86738C17.1987 4.7094 17.0696 4.58123 16.9123 4.58123V4.57974ZM12.3288 7.22659C12.3288 7.06861 12.4579 6.94044 12.6152 6.94044H14.0901C14.2488 6.94044 14.3764 7.06861 14.3764 7.22659V9.47254C14.3764 9.63051 14.2474 9.75868 14.0901 9.75868H12.6152C12.4564 9.75868 12.3288 9.63051 12.3288 9.47254V7.22659Z" fill="white"/>
</svg>
