<svg width="24" height="24" viewBox="0 0 24 24" fill="none" xmlns="http://www.w3.org/2000/svg">
<path d="M21.2945 24H2.70554C1.21224 24 0 22.7878 0 21.2945V2.70555C0 1.21224 1.21224 0 2.70554 0H21.2945C22.7878 0 24 1.21224 24 2.70555V21.2945C24 22.7878 22.7878 24 21.2945 24Z" fill="#DD742E"/>
<path d="M5.17962 20.2604V8.33305H3.8584L5.56777 3.72119H8.88134V20.2604H5.17962Z" fill="white"/>
<path d="M19.5756 9.37129H13.7744V6.94681H19.8375V3.72119H10.1396V12.5319H16.3538V17.1418H13.7343V14.9774H10.1416V19.8914C10.1416 20.096 10.3079 20.2604 10.5106 20.2604H19.5775C19.7821 20.2604 19.9465 20.094 19.9465 19.8914V9.74222C19.9465 9.53764 19.7802 9.3732 19.5775 9.3732L19.5756 9.37129Z" fill="white"/>
</svg>
