<svg width="24" height="24" viewBox="0 0 24 24" fill="none" xmlns="http://www.w3.org/2000/svg">
<path d="M21.2945 24H2.70554C1.21224 24 0 22.7897 0 21.2945V2.70554C0 1.21224 1.21224 0 2.70554 0H21.2945C22.7897 0 24 1.21224 24 2.70554V21.2945C24 22.7878 22.7897 24 21.2945 24Z" fill="#269C55"/>
<path d="M6.88497 18.0932L6.59625 16.271H4.48726L4.20046 18.0913H1.48535V18.0588L4.05705 5.88477H7.02837L9.60007 18.0607V18.0932H6.88497ZM5.54271 9.81593L4.87158 13.9708H6.21384L5.54271 9.81593Z" fill="white"/>
<path d="M10.0815 18.0913V5.88477H12.7986V15.6477H15.9936V18.0913H10.0815Z" fill="white"/>
<path d="M16.5718 18.0913V5.88477H19.2888L19.2869 15.6477H22.4838V18.0932L16.5718 18.0913Z" fill="white"/>
</svg>
